<?xml version="1.0" standalone="no"?>
<!DOCTYPE svg PUBLIC "-//W3C//DTD SVG 1.1//EN" "http://www.w3.org/Graphics/SVG/1.1/DTD/svg11.dtd" >
<!--
2013-9-30: Created.
-->
<svg>
<metadata>
Created by iconfont
</metadata>
<defs>

<font id="iconfont" horiz-adv-x="1024" >
  <font-face
    font-family="iconfont"
    font-weight="500"
    font-stretch="normal"
    units-per-em="1024"
    ascent="896"
    descent="-128"
  />
    <missing-glyph />
    
    <glyph glyph-name="x" unicode="x" horiz-adv-x="1001"
d="M281 543q-27 -1 -53 -1h-83q-18 0 -36.5 -6t-32.5 -18.5t-23 -32t-9 -45.5v-76h912v41q0 16 -0.5 30t-0.5 18q0 13 -5 29t-17 29.5t-31.5 22.5t-49.5 9h-133v-97h-438v97zM955 310v-52q0 -23 0.5 -52t0.5 -58t-10.5 -47.5t-26 -30t-33 -16t-31.5 -4.5q-14 -1 -29.5 -0.5
t-29.5 0.5h-32l-45 128h-439l-44 -128h-29h-34q-20 0 -45 1q-25 0 -41 9.5t-25.5 23t-13.5 29.5t-4 30v167h911zM163 247q-12 0 -21 -8.5t-9 -21.5t9 -21.5t21 -8.5q13 0 22 8.5t9 21.5t-9 21.5t-22 8.5zM316 123q-8 -26 -14 -48q-5 -19 -10.5 -37t-7.5 -25t-3 -15t1 -14.5
t9.5 -10.5t21.5 -4h37h67h81h80h64h36q23 0 34 12t2 38q-5 13 -9.5 30.5t-9.5 34.5q-5 19 -11 39h-368zM336 498v228q0 11 2.5 23t10 21.5t20.5 15.5t34 6h188q31 0 51.5 -14.5t20.5 -52.5v-227h-327z" />
    

    
    <glyph glyph-name="xiai" unicode="&#58929;" d="M533.504 627.712q33.792 41.984 71.68 75.776 32.768 27.648 74.24 50.176t86.528 19.456q63.488-5.12 105.984-30.208t67.584-63.488 34.304-87.04 6.144-99.84-17.92-97.792-36.864-87.04-48.64-74.752-53.248-61.952q-40.96-41.984-85.504-78.336t-84.992-62.464-73.728-41.472-51.712-15.36q-20.48-1.024-52.224 14.336t-69.632 41.472-79.872 61.952-82.944 75.776q-26.624 25.6-57.344 59.392t-57.856 74.24-46.592 87.552-21.504 100.352 11.264 99.84 39.936 83.456 65.536 61.952 88.064 35.328q24.576 5.12 49.152 1.536t48.128-12.288 45.056-22.016 40.96-27.648q45.056-33.792 86.016-80.896z"  horiz-adv-x="1024" />

    
    <glyph glyph-name="liebiao1" unicode="&#58930;" d="M187.392 825.344q28.672 0 48.64-19.456t19.968-48.128l0-52.224q0-28.672-19.968-48.64t-48.64-19.968l-54.272 0q-27.648 0-47.616 19.968t-19.968 48.64l0 52.224q0 28.672 19.968 48.128t47.616 19.456l54.272 0zM889.856 825.344q27.648 0 47.616-19.456t19.968-48.128l0-52.224q0-28.672-19.968-48.64t-47.616-19.968l-437.248 0q-28.672 0-48.64 19.968t-19.968 48.64l0 52.224q0 28.672 19.968 48.128t48.64 19.456l437.248 0zM187.392 506.88q28.672 0 48.64-19.968t19.968-48.64l0-52.224q0-27.648-19.968-47.616t-48.64-19.968l-54.272 0q-27.648 0-47.616 19.968t-19.968 47.616l0 52.224q0 28.672 19.968 48.64t47.616 19.968l54.272 0zM889.856 506.88q27.648 0 47.616-19.968t19.968-48.64l0-52.224q0-27.648-19.968-47.616t-47.616-19.968l-437.248 0q-28.672 0-48.64 19.968t-19.968 47.616l0 52.224q0 28.672 19.968 48.64t48.64 19.968l437.248 0zM187.392 187.392q28.672 0 48.64-19.968t19.968-47.616l0-52.224q0-28.672-19.968-48.64t-48.64-19.968l-54.272 0q-27.648 0-47.616 19.968t-19.968 48.64l0 52.224q0 27.648 19.968 47.616t47.616 19.968l54.272 0zM889.856 187.392q27.648 0 47.616-19.968t19.968-47.616l0-52.224q0-28.672-19.968-48.64t-47.616-19.968l-437.248 0q-28.672 0-48.64 19.968t-19.968 48.64l0 52.224q0 27.648 19.968 47.616t48.64 19.968l437.248 0z"  horiz-adv-x="1024" />

    
    <glyph glyph-name="wodezichan" unicode="&#58933;" d="M511.5709 805.9464c-233.1771 0-422.2065-189.0284-422.2065-422.2065 0-233.1781 189.0284-422.2065 422.2065-422.2065 233.1791 0 422.2075 189.0284 422.2075 422.2065C933.7774 616.918 744.7491 805.9464 511.5709 805.9464zM679.2376 411.8129l0-57.428992L568.986624 354.383908l0-83.2 110.592 0 0-55.04-111.104 0 0-111.616-111.616 0 0 111.36-113.92 0 0 55.552 113.92 0 0 83.2-114.176 0 0 56.576 113.664 0-136.192 227.925 73.044992 0 120.4193-196.267 118.5137 196.267 70.313984 0-134.144-227.328L679.237632 411.812908z"  horiz-adv-x="1024" />

    
    <glyph glyph-name="new" unicode="&#58900;" d="M886.783344 325.772032l33.216048-12.496 32.848-20.064 0-10.24-32.848-20.064-33.216048-12.496-2.16-17.104 29.072048-20.368 26.832-27.6-2.56-9.92-36.800048-11.264-35.296-3.84-6.336-16.032 23.088-26.96 19.12-33.392-4.928-8.992-38.448-1.76-35.136 5.056-10.128-13.936 15.648-31.856 10.224-37.104-7.024-7.472-37.68 7.856-32.768 13.632-13.28-10.992 7.248-34.752 0.672-38.48-8.656-5.488-34.544 16.992-28.352 21.344-15.6-7.328-1.616-35.472-8.928-37.424-9.76-3.168-29.216 25.04-22.16 27.728-16.928-3.232-10.384-33.936-17.952-34.048-10.24-0.64-22.08 31.52-14.56 32.368-17.2 1.088-18.512-30.288-25.856-28.512-10.064 1.92-13.552 36.032-6.048 34.976-16.4 5.328-25.456-24.752-32.128-21.168-9.28 4.352-4.16 38.272 2.832 35.376-14.544 9.232-30.816-17.632-36.384-12.512-7.904 6.528 5.488 38.096 11.536 33.568-11.792 12.56-34.224-9.408-38.368-3.088-6.032 8.304 14.784 35.52 19.536 29.648-8.304 15.104-35.487997-0.608-37.919987 6.56-3.776 9.536 23.152 30.736 26.287984 23.856-4.288 16.688-34.527984 8.24-35.104 15.776-1.28 10.176 30.08 24.016 31.391992 16.56 0 17.248-31.391992 16.56-30.08 24.016 1.28 10.176 35.104 15.776 34.527984 8.24 4.288 16.688-26.287984 23.856-23.152 30.736 3.776 9.536 37.919987 6.56 35.487997-0.608 8.304 15.104-19.536 29.648-14.784 35.52 6.032 8.304 38.368-3.088 34.224-9.408 11.792 12.56-11.536 33.568-5.488 38.096 7.904 6.528 36.384-12.512 30.816-17.632 14.544 9.232-2.832 35.376 4.16 38.272 9.28 4.352 32.128-21.168 25.456-24.752 16.4 5.328 6.048 34.976 13.552 36.032 10.064 1.92 25.856-28.512 18.512-30.288 17.2 1.088 14.56 32.368 22.08 31.520005 10.24-0.64 17.952-34.048005 10.384-33.936 16.928-3.232 22.16 27.728 29.216 25.04 9.76-3.168 8.928-37.424 1.616-35.472 15.6-7.328 28.352 21.344 34.544 16.992 8.656-5.488-0.672-38.48-7.248-34.752 13.28-10.992 32.768 13.632 37.68 7.856 7.024-7.472-10.224-37.104-15.648-31.856 10.128-13.936 35.136 5.056 38.448-1.76 4.928-8.992-19.12-33.392-23.088-26.96 6.336-16.032 35.296-3.84 36.800048-11.264 2.56-9.92-26.832-27.6-29.072048-20.368zm872.88488-474.32l33.216-12.496 32.848-20.064 0-10.24-32.848-20.064-33.216-12.496-2.16-17.104 29.072-20.368 26.832-27.6-2.56-9.92-36.8-11.264-35.296-3.84-6.336-16.032 23.088-26.96 19.12-33.392-4.928-8.992-38.448-1.76-35.136 5.056-10.128-13.936 15.648-31.856 10.224-37.104-7.024-7.472-37.68 7.856-32.768 13.632-13.28-10.992 7.248-34.752 0.672-38.48-8.656-5.488-34.544 16.992-28.352 21.344-15.6-7.328-1.616-35.472-8.928-37.424-9.76-3.168-29.216 25.04-22.16 27.728-16.928-3.232-10.384-33.936-17.952-34.048-10.24-0.64-22.08 31.52-14.56 32.368-17.2 1.088-18.512-30.288-25.856-28.512-10.064 1.92-13.552 36.032-6.048 34.976-16.4 5.328-25.456-24.752-32.128-21.168-9.28 4.352-4.16 38.272 2.832 35.376-14.544 9.232-30.816-17.632-36.384-12.512-7.904 6.528 5.488 38.096 11.536 33.568-11.792 12.56-34.224-9.408-38.368-3.088-6.032 8.304 14.784 35.52 19.536 29.648-8.304 15.104-35.488-0.608-37.92 6.56-3.776 9.536 23.152 30.736 26.288 23.856-4.288 16.688-34.528 8.24-35.104 15.776-1.28 10.176 30.08 24.016 31.392 16.56 0 17.248-31.392 16.56-30.08 24.016 1.28 10.176 35.104 15.776 34.528 8.24 4.288 16.688-26.288 23.856-23.152 30.736 3.776 9.536 37.92 6.56 35.488-0.608 8.304 15.104-19.536 29.648-14.784 35.52 6.032 8.304 38.368-3.088 34.224-9.408 11.792 12.56-11.536 33.568-5.488 38.096 7.904 6.528 36.384-12.512 30.816-17.632 14.544 9.232-2.832 35.376 4.16 38.272 9.28 4.352 32.128-21.168 25.456-24.752 16.4 5.328 6.048 34.976 13.552 36.032 10.064 1.92 25.856-28.512 18.512-30.288 17.2 1.088 14.56 32.368 22.08 31.52 10.24-0.64 17.952-34.048 10.384-33.936 16.928-3.232 22.16 27.728 29.216 25.04 9.76-3.168 8.928-37.424 1.616-35.472 15.6-7.328 28.352 21.344 34.544 16.992 8.656-5.488-0.672-38.48-7.248-34.752 13.28-10.992 32.768 13.632 37.68 7.856 7.024-7.472-10.224-37.104-15.648-31.856 10.128-13.936 35.136 5.056 38.448-1.76 4.928-8.992-19.12-33.392-23.088-26.96 6.336-16.032 35.296-3.84 36.8-11.264 2.56-9.92-26.832-27.6-29.072-20.368z"  horiz-adv-x="1024" />

    
    <glyph glyph-name="yiwen" unicode="&#58934;" d="M563.363941 323.662797c-0.662107 10.635221 5.985569 21.937638 19.948145 33.908274 13.962576 11.964496 29.591164 25.264407 46.879625 39.893592 17.288461 14.628162 33.242474 31.083949 47.872273 49.365314 14.630823 18.286482 22.606806 39.397289 23.936137 63.332421 1.330354 25.932626-1.329331 50.199309-7.977007 72.810283-6.647676 22.604834-17.620026 42.050722-32.910909 58.33971-15.297023 16.290011-35.079386 29.258371-59.347087 38.900985-24.267702 9.636474-52.694294 14.45727-85.274661 14.45727-40.563514 0-74.308452-7.148817-101.239931-21.441335-26.925339-14.293541-48.705279-31.581276-65.326516-51.864228-16.621237-20.276812-28.26081-41.222867-34.908486-62.829977-6.647676-21.60711-9.641996-39.727817-8.974772-54.358025 0.662107-17.282618 6.150328-29.92045 16.455454-37.897122 10.305126-7.976672 21.442235-12.135388 33.413373-12.466939 11.964998-0.331551 22.937348 2.989077 32.910909 9.973142 9.973561 6.984065 14.960341 17.121959 14.960341 30.416753 0 7.982812 2.493902 17.790178 7.480682 29.424146s11.805356 22.771633 20.450609 33.411971c8.643207 10.635221 19.115139 19.615757 31.416819 26.924209 12.30168 7.315616 26.098473 10.971889 41.39038 10.971889 29.921706 0 53.857842-7.480368 71.81455-22.440082 17.950567-14.959713 26.263233-33.742499 24.934925-56.348356 0-11.302417-3.325885-21.772886-9.973561-31.4155-6.652793-9.642614-15.131241-18.948561-25.43739-27.929096-10.304103-8.974395-21.276452-17.949814-32.910909-26.924209-11.639573-8.974395-22.606806-18.286482-32.917049-27.929096-10.304103-9.636474-18.949356-20.111037-25.927574-31.4155-6.984358-11.302417-10.806567-23.603581-11.474814-36.898375l0.998789-37.903262c0-9.973142 4.656239-19.444864 13.962576-28.4254 9.311454-8.975419 21.613134-13.796214 36.906064-14.458293 15.29293 0.662079 27.427804 5.64865 36.403599 14.959713 8.974772 9.30697 13.134686 19.947308 12.467463 31.911804L563.365987 323.662797zM512.496324 78.314902c17.289484 0 31.753501 5.814426 43.387957 17.453511 11.639573 11.633968 17.454243 25.761734 17.454243 42.387389 0 17.287735-5.81467 31.747051-17.454243 43.386136-11.634456 11.633968-26.098473 17.453511-43.387957 17.453511-17.283344 0-31.747361-5.819542-43.381817-17.453511-11.639573-11.639085-17.454243-26.098401-17.454243-43.386136 0-16.625656 5.81467-30.753421 17.454243-42.387389C480.748964 84.129328 495.212981 78.314902 512.496324 78.314902zM511.503676 830.312952c61.834849 0 119.851582-11.799744 174.04099-35.403325 54.194524-23.604604 101.570473-55.522548 142.127847-95.746668 40.56249-40.225143 72.476657-87.433328 95.750687-141.625578 23.27403-54.187133 34.908486-112.201431 34.908486-174.033685 0-61.838394-11.634456-119.6818-34.908486-173.543521-23.27403-53.855582-55.188196-101.063767-95.750687-141.619438-40.557374-40.560788-87.933322-72.473615-142.127847-95.746668-54.189408-23.273053-112.206141-34.907021-174.04099-34.907021-61.840989 0-119.686823 11.633968-173.550806 34.907021-53.857842 23.273053-101.068009 55.18588-141.625382 95.746668-40.56249 40.555671-72.476657 87.763856-95.750687 141.619438C77.302771 263.82292 65.668315 321.666326 65.668315 383.503696c0 61.832254 11.634456 119.846552 34.908486 174.033685 23.27403 54.19225 55.188196 101.400435 95.750687 141.625578 40.557374 40.22412 87.76754 72.142064 141.625382 95.746668C391.816852 818.513208 449.662687 830.312952 511.503676 830.312952z"  horiz-adv-x="1024" />

    
    <glyph glyph-name="ordinaryemail1" unicode="&#59033;" d="M673.344 338.784 992 608.608l0-649.984L673.344 338.784zM35.648 642.912l953.92 0L512.64 241.696 35.648 642.912zM512.512 202.464l139.904 118.272 304-362.432L68.864-41.696l303.936 358.848L512.512 202.464zM350.656 338.784 32 608.608l0-649.984L350.656 338.784z"  horiz-adv-x="1024" />

    
    <glyph glyph-name="pinpaizhuanxiang" unicode="&#58935;" d="M752.287645 53.187619 241.808278 53.187619c-32.485879 0-58.840106-28.718065-58.840106-66.514903 0-37.796838 26.354228-66.514903 58.840106-66.514903L752.287645-79.842187c32.465412 0 58.81964 28.718065 58.81964 66.514903C811.107285 24.46853 784.754081 53.187619 752.287645 53.187619zM986.994178 650.200828c-3.860934 3.924379-8.213056 7.604188-13.229303 10.882861-17.278525 12.012591-38.236859 19.101033-60.875462 19.101033-59.001789 0-106.832144-47.830355-106.832144-106.832144 0-35.591613 17.473977-67.030649 44.236504-86.444814-18.816554-21.741163-87.804788-98.129948-120.589472-88.849584-50.544163 14.326287-61.559031 224.466308-62.34186 240.869906 50.913577 8.149611 89.856517 52.147684 89.856517 105.35756 0 59.001789-47.830355 106.832144-106.832144 106.832144-59.001789 0-106.832144-47.830355-106.832144-106.832144 0-40.822754 22.913872-76.269058 56.56632-94.254687-11.913331-29.723975-59.521628-143.191236-91.974761-142.78703-33.634028 0.394996-81.153298 118.347408-91.310635 144.589073 31.927153 18.472723 53.463656 52.912094 53.463656 92.451622 0 59.001789-47.830355 106.832144-106.832144 106.832144S256.631892 803.286412 256.631892 744.284623c0-46.931892 30.30726-86.703711 72.383564-101.04944 6.053879-2.444679 12.727882-4.148483 20.159132-4.830005 0 0-20.934798-220.128513-68.87567-231.69085-41.079604-9.914814-95.582939 57.788148-111.737874 79.369675 27.395954 19.34151 45.337581 51.182706 45.337581 87.268576 0 59.001789-47.830355 106.832144-106.832144 106.832144-8.967232 0-17.628496-1.225921-25.951045-3.307326-15.777335-1.573845-51.346435-10.061147-68.306712-53.266158-8.006348-14.984273-12.57541-32.083719-12.57541-50.259684 0-24.376177 8.256034-46.77328 21.999037-64.750723 7.150864-10.338463 17.026792-20.056801 30.67565-27.221991 15.893992-9.380648 34.365692-14.859429 54.158481-14.859429 5.536087 0 10.930957 0.551562 16.239869 1.363044 3.872191-29.196972 43.789319-318.299393 106.777909-321.490062 59.319014-3.01159 474.653417-1.192152 548.253692-1.192152 68.465325 0 122.777301 313.267796 122.777301 313.267796l1.109264 8.589632c3.508917-0.347924 7.063883-0.538259 10.663874-0.538259 19.228947 0 37.22481 5.1503 52.81181 14.041808 18.559705 6.217608 35.912931 19.574824 43.354414 46.49494 6.764054 14.022365 10.664897 29.68509 10.664897 46.295396C1019.721557 603.552391 1007.140007 630.77029 986.994178 650.200828z"  horiz-adv-x="1024" />

    
    <glyph glyph-name="dianhua1" unicode="&#58903;" d="M788.10285 208.465261c-22.672372 4.217045-65.146743-34.283828-65.146743-34.283828 121.4337-76.6968 121.126708-169.83506 121.126708-169.83506s27.622104 13.811564 42.108027 37.524638c14.482853 23.712051 19.432585 51.701522-15.767102 100.714819C835.161632 191.660526 810.838667 204.127466 788.10285 208.465261zM335.314417 604.267818c-22.948665-2.475378-52.313459-51.79362-52.313459-51.79362 138.575102-37.859259 165.55764-126.994346 165.55764-126.994346s23.497157 30.312376 30.432103 57.201793c6.907317 26.859741 2.293229 46.140876-45.741787 82.747609C385.244596 602.037011 358.293781 606.803571 335.314417 604.267818zM511.137865 744.186522c-246.409063 0-446.892143-199.169155-446.892143-443.989023 0-244.760516 200.48308-443.928648 446.892143-443.928648 110.615307 0 211.331149 40.763402 289.432948 107.193371 8.372691 1.64957 30.924313 8.18952 26.034956 31.290657-5.930059 28.355815-50.051953 119.842459-117.887944 160.055322 0 0-25.605168 15.157211-47.974641-12.467963 0 0-34.955116-12.527314-111.316272 61.174268-76.363202 73.765027-145.481396 129.683595-120.487142 204.7605 0 0 11.183713 40.151465-82.991156 93.41353-94.145194 53.352115-101.021811 19.495006-105.665575 5.65172-4.583388-13.842263-30.617321-65.543785-11.183713-115.901707 15.827477-41.006949 66.85771-145.205103 216.983893-287.416012C572.067562-15.148633 649.742642-61.042893 709.939653-62.326119c-59.034535-32.208563-126.748752-50.725288-198.801788-50.725288-229.481532 0-416.182724 185.416943-416.182724 413.249929 0 227.891314 186.701193 413.30928 416.182724 413.30928 229.480508 0 416.183747-185.41899 416.183747-413.30928 0-2.506077-0.367367-4.949732-0.429789-7.455809l30.740118 0c0.061398 2.506077 0.427742 4.949732 0.427742 7.455809C958.059684 545.017366 757.546927 744.186522 511.137865 744.186522z"  horiz-adv-x="1024" />

    
    <glyph glyph-name="51home" unicode="&#58977;" d="M777.46176 390.99264l-243.75296 152.22784c-13.27104 8.27392-30.12608 8.27392-43.39712 0l-243.75296-152.22784c-11.9808-7.4752-19.2512-20.62336-19.2512-34.73408l0-253.62432c0-22.60992 18.35008-40.96 40.96-40.96l487.5264 0c22.60992 0 40.96 18.35008 40.96 40.96L796.75392 356.25856C796.71296 370.38976 789.44256 383.51744 777.46176 390.99264zM497.11104 181.58464c0-14.09024-11.42784-25.4976-25.53856-25.4976l-42.53696 0c-14.09024 0-25.53856 11.42784-25.53856 25.4976l0 42.57792c0 14.09024 11.42784 25.51808 25.53856 25.51808l42.53696 0c14.09024 0 25.53856-11.44832 25.53856-25.51808L497.11104 181.58464zM497.11104 300.7168c0-14.09024-11.42784-25.51808-25.53856-25.51808l-42.53696 0c-14.09024 0-25.53856 11.42784-25.53856 25.51808l0 42.57792c0 14.09024 11.42784 25.4976 25.53856 25.4976l42.53696 0c14.09024 0 25.53856-11.42784 25.53856-25.4976L497.11104 300.7168zM620.48256 181.58464c0-14.09024-11.42784-25.4976-25.53856-25.4976l-42.53696 0c-14.09024 0-25.53856 11.42784-25.53856 25.4976l0 42.57792c0 14.09024 11.42784 25.51808 25.53856 25.51808l42.53696 0c14.09024 0 25.53856-11.44832 25.53856-25.51808L620.48256 181.58464zM620.48256 300.7168c0-14.09024-11.42784-25.51808-25.53856-25.51808l-42.53696 0c-14.09024 0-25.53856 11.42784-25.53856 25.51808l0 42.57792c0 14.09024 11.42784 25.4976 25.53856 25.4976l42.53696 0c14.09024 0 25.53856-11.42784 25.53856-25.4976L620.48256 300.7168zM909.37344 413.0496c-7.76192-12.43136-21.11488-19.2512-34.77504-19.2512-7.41376 0-14.90944 2.00704-21.66784 6.22592L512 612.89344l-340.93056-212.91008c-19.21024-12.00128-44.46208-6.144-56.44288 13.04576-11.9808 19.21024-6.144 44.46208 13.04576 56.44288l362.63936 226.46784c13.27104 8.27392 30.12608 8.27392 43.39712 0l362.63936-226.46784C915.51744 457.4912 921.35424 432.23936 909.37344 413.0496z"  horiz-adv-x="1024" />

    
    <glyph glyph-name="shouye" unicode="&#58926;" d="M742.595912-108.897943c-3.51915 0-7.078209 0.991584-10.241248 3.066849-34.372855 22.556739-90.629113 24.765033-94.152357 24.879644l-21.048385-0.021489c-0.010233 0-0.019443 0-0.028653 0-2.294252 0-20.88568 0.436952-35.009352 14.537088-6.686283 6.675026-14.655791 18.862603-14.655791 39.009456L567.460126 84.003462c-0.195451 13.483082-3.994987 23.407106-11.613502 30.334889-13.489222 12.266371-37.208437 13.252839-45.213761 12.594853l-0.781806-0.051165c-17.934464-0.796132-30.728862-5.560646-38.027082-14.158465-8.908904-10.496052-7.758708-24.717961-7.628748-26.049283l0.234337-1.414209-0.063445-1.124614 0-111.560842c0-20.146852-7.970532-32.334429-14.656815-39.009456-14.124695-14.101159-32.719192-14.537088-34.93465-14.537088-0.00921 0-0.01842 0-0.026606 0L192.763259-80.971917c-26.51591 0-48.087205 21.571295-48.087205 48.087205l0.021489 401.879973c0.042979 4.591575-0.851391 7.841595-2.65548 9.660011-2.680039 2.700505-7.842619 3.363607-9.679453 3.3984l-0.51063-0.034792-0.030699 0.031722c-27.866674 0-50.539047 22.669302-50.539047 50.534953 0 12.220323 4.421706 24.016996 12.45159 33.214473l0.854461 0.914836L481.487056 854.198965c23.887037 24.493857 52.385091 15.010879 65.730027 2.64013l0.512676-0.493234 389.945153-390.07102 0.415462-0.476861c8.026814-9.195429 12.446473-20.99108 12.446473-33.214473 0-26.937512-18.760273-46.918589-46.899146-50.255591l-0.261966-0.076748-1.851161-0.161682c-6.570649-0.572028-14.402011-3.338025-14.402011-13.270235l0-395.084197 0.020466-0.115634 0-1.587148c0-12.859889-3.52222-24.940019-9.91993-34.013675-8.634658-12.247952-22.190395-18.992563-38.166251-18.992563l-36.641525 0.021489c-10.326183 0-18.696828 8.370645-18.696828 18.696828s8.370645 18.696828 18.696828 18.696828l36.707017-0.021489c5.332449 0.017396 6.767124 2.051729 7.538697 3.146667 1.786693 2.533706 2.908236 6.703679 3.068895 11.316743L849.729931 368.821299c0 26.616194 19.037589 47.051619 46.547129 50.315966l0.228197 0.066515 1.825578 0.163729c9.828856 0.881067 14.813381 5.328355 14.813381 13.217023 0 3.783163-1.512447 6.523577-2.905166 8.244778L521.795087 829.398116c-6.845918 5.585205-11.555174 0.734734-13.58132-1.351787l-0.183172-0.186242L121.587196 440.83238c-1.396813-1.723248-2.912329-4.464685-2.912329-8.247848 0-7.201006 5.823636-13.068643 13.010315-13.141298 3.89982 0.060375 22.5199-0.436952 36.364209-13.920034 6.490831-6.320962 14.189164-17.831111 14.040784-36.776601l0-402.305669c0.347924-5.584182 5.001921-10.021238 10.673084-10.021238l221.769896 0c1.172709 0.066515 4.492314 0.589424 7.14677 2.313695 1.447978 0.940418 5.293563 3.437286 5.293563 13.840216L426.973488 83.072253c-0.696872 6.947226-1.750877 32.04074 15.857153 53.271274 14.217816 17.140379 36.077683 26.51898 64.97585 27.876907 6.390547 0.514723 45.712111 2.561335 72.968895-22.00927 15.660678-14.117532 23.76117-33.5757 24.076348-57.83215l0.001023-0.243547 0-111.560842c0-5.886057 1.239224-10.107195 3.683902-12.547781 3.178389-3.174296 8.432043-3.606131 8.481162-3.606131l3.706415 0.021489 18.171871-0.004093c2.821255-0.063445 69.613474-1.89414 113.975844-31.006178 8.632611-5.665023 11.038404-17.256012 5.373381-25.889647C754.654552-105.928309 748.683561-108.897943 742.595912-108.897943z"  horiz-adv-x="1024" />

    
    <glyph glyph-name="yonghu" unicode="&#58931;" d="M703.400215-99.074204c-3.51915 0-7.078209 0.991584-10.240225 3.066849-30.28884 19.875676-80.136132 25.263383-97.079012 25.678846l-22.119787 0-35.287691-0.271176c-0.048095 0-0.095167 0-0.143263 0L92.740194-70.599685c-10.326183 0-18.696828 8.370645-18.696828 18.696828l0 22.467711c-0.318248 6.266727-0.910743 40.603767 21.004383 78.307484 13.716396 23.598464 33.431414 43.86095 58.598606 60.225663 30.493501 19.828604 69.116147 33.909297 114.796536 41.84913 0.233314 0.039909 0.466628 0.075725 0.700965 0.107447 0.346901 0.047072 35.499515 4.858658 71.208808 14.273075 61.894675 16.317641 67.307965 30.743188 67.345828 30.884404 0.364297 1.430582 0.89437 2.803859 1.572822 4.095271 0.50756 2.699482 1.76418 12.858866-0.63752 40.079834-6.100952 69.136613-42.120306 109.995183-71.061452 142.825916-9.127891 10.354835-17.749246 20.133549-24.387433 29.722952-28.640294 41.37227-31.296797 88.416725-31.396057 90.39887-0.01535 0.311085-0.022513 0.62217-0.022513 0.933255 0 18.779715 9.363252 27.418466 17.624403 35.041074l0.433882 0.401136c0.271176 0.25071 0.442068 0.436952 0.542352 0.556679 0.093121 1.340531-0.566912 4.743024-1.013073 7.04137-0.169869 0.873903-0.339738 1.750877-0.50142 2.632967-7.179516 38.981826-7.670703 99.19214-1.175779 137.837298 2.409886 50.813293 46.224788 89.711208 48.105624 91.356684 0.071631 0.062422 0.143263 0.12382 0.214894 0.185218 6.290263 5.338588 12.671601 11.169387 16.727986 17.636682 0.487094 0.775666 0.827855 1.37737 1.066285 1.836835-0.304945 0.786922-0.741897 1.793856-1.094938 2.608407-2.436492 5.618974-6.118348 14.109346-4.02364 25.02393 1.263783 6.589069 6.078439 18.362206 24.118304 23.173792 7.261381 1.937119 15.022135 2.333138 20.689205 2.62171l1.122567 0.058328c22.38994 1.178849 46.272883 2.176572 70.435189 0.324388 174.730557-13.396101 234.920404-78.686107 237.396805-81.459267 0.140193-0.155543 0.276293-0.314155 0.409322-0.474814 13.986549-16.756639 24.347524-37.635155 30.7964-62.055334 2.01489-7.619538 3.309372-14.016225 4.062526-20.072151 6.102998-35.464723 5.084808-71.904657 3.78214-96.269577-0.732687-13.675464-2.257413-28.030403-4.800329-45.175899-0.691755-4.656043 0.068562-5.564739 0.355087-5.906523 0.75827-0.906649 1.686409-1.892093 2.667759-2.934842 3.862981-4.099365 9.152451-9.713222 11.964496-18.721387 1.410116-4.502547 2.069125-9.360182 2.069125-15.267728 0-0.311085-0.008186-0.62217-0.022513-0.933255-0.099261-1.982144-2.755764-49.0266-31.395034-90.397846-6.639211-9.590426-15.259542-19.36914-24.387433-29.722952-28.942169-32.829709-64.960501-73.689303-71.061452-142.827963-2.4017-27.220968-1.14508-37.379329-0.63752-40.079834 0.678452-1.291412 1.208525-2.664689 1.572822-4.094248 0.036839-0.141216 5.471618-14.613836 67.648726-30.964222 35.7052-9.388834 70.557986-14.146185 70.90591-14.193257 0.303922-0.040932 0.606821-0.090051 0.908696-0.145309 46.095851-8.549723 84.956927-22.991644 115.505687-42.923602 25.252127-16.476253 44.930305-36.7019 58.489112-60.114123 21.50171-37.128619 20.626783-70.714552 20.195971-77.443813l0-22.332634c0-10.326183-8.370645-18.696828-18.696828-18.696828L775.884063-70.602755c-10.326183 0-18.696828 8.370645-18.696828 18.696828s8.370645 18.696828 18.696828 18.696828l158.188812 0L934.072875-28.897911c0 0.686638 0.00921 1.106194 0.081864 1.769296 0.104377 1.508353 1.627057 28.332279-16.349363 58.130955-10.82044 17.937534-26.589588 33.609469-46.870494 46.580898-26.100448 16.693194-59.762105 28.967752-100.05274 36.482913-4.63967 0.642636-39.012526 5.564739-75.080999 15.059997-70.761624 18.629289-87.964424 39.353286-93.189426 54.395888-4.004197 7.765871-6.245238 23.195282-2.984984 60.153008 7.18054 81.369216 49.41955 129.282458 80.260975 164.268274 8.747221 9.921977 16.301268 18.491143 21.693068 26.279526 21.120017 30.510898 24.437575 66.300009 24.765033 70.606081-0.032746 2.252297-0.260943 3.223415-0.36225 3.549849-0.248663 0.798179-1.89721 2.547009-3.490497 4.238534-1.25048 1.327228-2.667759 2.832512-4.136204 4.587482-7.950066 9.504468-10.782577 21.079084-8.66024 35.384905 2.367931 15.960507 3.781116 29.206182 4.449335 41.684378 1.951445 36.502355 0.913812 63.747883-3.363607 88.341001-0.057305 0.326435-0.105401 0.654916-0.145309 0.983397-0.531096 4.438079-1.530866 9.354042-3.14769 15.46932-4.986571 18.884093-12.726859 34.770921-23.006993 47.232744-1.714038 1.747807-15.385409 15.125489-45.883003 29.67588-54.882981 26.183336-120.791064 35.849486-166.417217 39.34817-21.934568 1.681292-44.442188 0.732687-65.614393-0.382717l-1.178849-0.060375c-1.766226-0.090051-4.735861-0.2415-7.55814-0.525979 2.447748-5.841032 5.453199-14.632255 2.296299-25.136493-1.184989-3.939729-3.003404-7.792477-5.723352-12.129248-6.732331-10.733459-15.923668-19.23611-24.054859-26.145473-1.597381-1.441838-34.223452-31.356149-35.351136-65.738213-0.028653-0.86981-0.11768-1.736551-0.267083-2.594081-5.972015-34.304294-5.568832-90.780563 0.898463-125.894292 0.140193-0.765433 0.288572-1.52575 0.435928-2.282996 1.980097-10.205433 5.294586-27.284413-10.879792-42.202171l-0.434905-0.402159c-2.086521-1.924839-4.943592-4.560876-5.41636-5.468548l0 0c0.00307 0-0.13303-0.426719-0.164752-1.584078 0.328481-4.295839 3.654226-40.060391 24.76401-70.554916 5.3918-7.788383 12.945847-16.356526 21.693068-26.279526 30.841426-34.984792 73.079412-82.899058 80.259952-164.266227 3.260254-36.95875 1.019213-52.388161-2.984984-60.154032-5.226025-15.042601-22.427802-35.766598-93.189426-54.395888-36.365232-9.574053-71.006194-14.497179-75.18947-15.074324-39.83424-6.958482-73.196069-18.883069-99.160417-35.44528-20.185738-12.876262-35.971259-28.599362-46.919613-46.732347-18.282389-30.281677-17.133216-57.860802-17.055444-59.33641 0.050142-0.543376 0.054235-0.867764 0.054235-1.433652l0-4.309142 427.01135 0 35.287691 0.271176c0.047072 0 0.095167 0 0.143263 0l22.423709 0c0.141216 0 0.280386-0.001023 0.421602-0.005117 2.895957-0.064468 71.446215-1.943258 116.949572-31.803333 8.633634-5.665023 11.039427-17.254989 5.374404-25.888624C715.458855-96.104569 709.488887-99.074204 703.400215-99.074204zM631.466905 206.1238c0.454348-0.36839 0.890276-0.757247 1.305739-1.164522C632.378671 205.346087 631.943766 205.73699 631.466905 206.1238zM414.041968 206.1238c-0.471744-0.382717-0.901533-0.768503-1.292436-1.152243C413.160901 205.373717 413.592736 205.75848 414.041968 206.1238z"  horiz-adv-x="1024" />

    
    <glyph glyph-name="qingdan" unicode="&#58966;" d="M883.421264 870.810295l-745.519498 0c-36.991496 0-67.086931-30.095435-67.086931-67.086931l0-819.241546c0-36.991496 30.095435-67.087954 67.086931-67.087954l487.422232 0c17.541515-0.264013 67.521836-4.910846 89.899496-23.094998 3.414773-2.774183 7.523347-4.124947 11.605316-4.124947 5.354961 0 10.665921 2.323928 14.304797 6.803963 6.41613 7.894807 5.216815 19.49603-2.677992 25.910113-36.368302 29.554106-105.063871 31.247678-112.77653 31.343869l-487.777319 0.001023c-16.678868 0-30.247908 13.570063-30.247908 30.248931L107.653859 803.723364c0 16.678868 13.56904 30.247908 30.247908 30.247908l162.213475 0-0.037862-0.470721-0.130983 0.011256c1.402953-0.134053 34.07405-3.588735 47.286979-33.641191 2.585895-10.102079 15.581883-50.080605 60.71685-58.043974l1.588171-0.280386 179.597401 0 1.588171 0.280386c45.134966 7.963369 58.136072 47.945989 60.721967 58.043974 13.207813 30.049387 45.884027 33.507138 47.285956 33.640168l-0.130983-0.011256-0.037862 0.470721 184.858218 0c16.678868 0 30.248931-13.56904 30.248931-30.247908l0-819.241546c0-16.678868-13.570063-30.248931-30.248931-30.248931l-89.517803 0c-10.172687 0-18.419512-8.246825-18.419512-18.419512s8.246825-18.419512 18.419512-18.419512l89.517803 0c36.991496 0 67.087954 30.095435 67.087954 67.087954L950.509219 803.723364C950.508195 840.714859 920.41276 870.810295 883.421264 870.810295zM616.85614 812.66399l-0.695848-1.690502-0.350994-1.793856c-0.050142-0.258896-5.26184-25.508977-30.04734-30.794353L412.913261 778.385279C389.157207 783.463947 383.307989 807.245583 382.857734 809.2441l-0.273223 1.568728-0.763386 1.853208c-3.38305 8.213056-7.585769 15.259542-12.276604 21.306258l259.586177 0C624.439862 827.924555 620.237143 820.877045 616.85614 812.66399zM747.283678 598.223013l-571.84397 0c-10.172687 0-18.419512-8.246825-18.419512-18.419512s8.246825-18.419512 18.419512-18.419512l571.84397 0c10.172687 0 18.419512 8.246825 18.419512 18.419512S757.456365 598.223013 747.283678 598.223013zM747.283678 367.050979l-571.84397 0c-10.172687 0-18.419512-8.246825-18.419512-18.419512s8.246825-18.419512 18.419512-18.419512l571.84397 0c10.172687 0 18.419512 8.246825 18.419512 18.419512S757.456365 367.050979 747.283678 367.050979zM175.438685 439.714929l381.232724 0c10.172687 0 18.419512 8.246825 18.419512 18.419512s-8.246825 18.419512-18.419512 18.419512l-381.232724 0c-10.172687 0-18.419512-8.246825-18.419512-18.419512S165.265998 439.714929 175.438685 439.714929z"  horiz-adv-x="1024" />

    
    <glyph glyph-name="shouyetianchong" unicode="&#59026;" d="M798.69952-72.506368l52.590592 0c16.816128 0 30.445568 13.630464 30.445568 30.445568l-0.016384 0.119808c0 0 0 139.549696 0 164.921344 0 25.375744 0 251.107328 0 251.107328 0 18.214912 12.729344 31.31392 32.606208 33.042432l0.098304 0.028672c20.436992 1.835008 32.985088 14.76608 32.985088 32.985088 0 8.296448-3.06176 15.87712-8.119296 21.671936L528.402432 820.01408c0 0-11.93472 10.326016-23.750656 0L93.763584 461.815808c-5.057536-5.794816-8.119296-13.375488-8.119296-21.671936 0-18.219008 14.76608-32.985088 32.985088-32.985088 0 0 33.026048 1.180672 32.705536-33.071104 0 0 0-225.731584 0-251.107328 0-25.371648 0-164.921344 0-164.921344l-0.02048-0.119808c0-16.816128 13.63456-30.445568 30.449664-30.445568l229.994496 0c0 0 32.002048-0.049152 32.002048 36.104192L443.76064 79.167488c0 0-8.6016 60.332032 65.629184 63.632384 0 0 78.983168 7.169024 79.904768-63.632384l0-115.569664c0-36.154368 32.006144-36.104192 32.006144-36.104192l63.917056 0 92.913664 0.111616L798.69952-72.506368z"  horiz-adv-x="1024" />

    
    <glyph glyph-name="yonghutianchong" unicode="&#59042;" d="M626.568192-85.999616l-23.379968 0-36.857856-0.283648L68.137984-86.283264l0 23.989248c0 0-10.815488 134.006784 186.535936 168.308736 0 0 150.230016 20.28032 160.748544 61.595648 0 0 5.732352 4.596736 1.502208 52.578304-9.017344 102.161408-75.86816 150.234112-102.909952 189.293568-27.041792 39.063552-29.293568 84.13184-29.293568 84.13184 0 11.264 4.716544 15.391744 12.560384 22.626304 9.696256 8.950784 6.786048 18.4576 4.934656 28.52864-7.04512 38.23616-7.666688 99.662848-0.970752 138.138624 1.502208 45.820928 43.56608 82.625536 43.56608 82.625536 7.892992 6.695936 15.803392 14.062592 21.343232 22.898688 1.547264 2.460672 2.970624 5.09952 3.8144 7.897088 3.16928 10.548224-7.560192 18.292736-5.407744 29.51168 1.942528 10.116096 19.280896 10.61376 29.766656 11.164672 23.614464 1.243136 47.347712 2.172928 70.925312 0.366592C641.71008 823.844864 699.725824 758.8864 699.725824 758.8864c13.73696-16.449536 22.787072-36.566016 28.23168-57.184256 1.630208-6.16448 3.028992-12.45696 3.785728-18.79552 5.501952-31.602688 5.481472-64.559104 3.770368-96.494592-0.815104-15.22688-2.584576-30.215168-4.819968-45.282304-1.17248-7.8848-0.571392-15.222784 4.70016-21.523456 4.4032-5.271552 9.44128-8.95488 11.60192-15.881216 1.011712-3.238912 1.275904-6.736896 1.275904-10.112 0 0-2.255872-45.068288-29.297664-84.13184-27.041792-39.059456-93.893632-87.13216-102.905856-189.293568-4.23424-47.981568 1.502208-52.578304 1.502208-52.578304 10.514432-41.314304 160.748544-61.595648 160.748544-61.595648 199.55712-37.010432 186.53184-168.308736 186.53184-168.308736l0-23.989248-131.3792 0 20.70016 0.283648L836.49536-86.00064l-36.64384 0L626.568192-86.00064 626.568192-85.999616z"  horiz-adv-x="1024" />

    
    <glyph glyph-name="qingdantianchong" unicode="&#59054;" d="M914.369536 879.131648 110.189568 879.131648c-28.992512 0-52.497408-23.5008-52.497408-52.497408l0-883.704832c0-28.992512 23.50592-52.497408 52.497408-52.497408l534.84032 0 172.776448 0 96.564224 0c28.992512 0 52.497408 23.50592 52.497408 52.497408L966.867968 826.63424C966.867968 855.631872 943.362048 879.131648 914.369536 879.131648zM356.176896 834.78528c9.500672 1.640448 19.033088-4.426752 20.922368-14.081024 0.198656-1.04448 6.438912-28.804096 34.126848-33.67936l181.513216 0.249856c24.574976 4.625408 30.821376 32.385024 31.066112 33.57696 2.04288 9.551872 11.493376 15.476736 21.019648 13.831168 9.577472-1.98656 15.822848-11.24352 13.959168-20.846592-0.422912-2.13504-10.897408-52.731904-62.936064-61.937664l-93.879296-0.249856-93.848576 0c-55.151616 9.455616-65.620992 60.05248-66.043904 62.18752C340.206592 823.54176 346.503168 832.894976 356.176896 834.78528zM759.968768 319.37536 161.37728 319.37536c-9.847808 0-17.835008 7.957504-17.835008 17.810432s7.988224 17.810432 17.835008 17.810432l598.591488 0c9.852928 0 17.835008-7.957504 17.835008-17.810432S769.821696 319.37536 759.968768 319.37536zM143.542272 451.80928c0 9.852928 7.988224 17.810432 17.835008 17.810432l399.069184 0c9.852928 0 17.835008-7.957504 17.835008-17.810432s-7.983104-17.810432-17.835008-17.810432L161.37728 433.998848C151.530496 433.998848 143.542272 441.956352 143.542272 451.80928zM759.968768 561.358848 161.37728 561.358848c-9.847808 0-17.835008 7.957504-17.835008 17.810432s7.988224 17.810432 17.835008 17.810432l598.591488 0c9.852928 0 17.835008-7.957504 17.835008-17.810432S769.821696 561.358848 759.968768 561.358848z"  horiz-adv-x="1024" />

    
    <glyph glyph-name="31shoucangxuanzhong" unicode="&#58936;" d="M946.44567 488.820324c-3.706415 11.056823-13.268188 19.154245-24.823362 20.929682l-263.117606 40.614L540.930913 802.08198c-5.108345 10.93198-16.071024 17.939581-28.155247 17.971303-0.030699 0-0.062422 0-0.062422 0-12.021801 0-22.985504-6.945179-28.155247-17.84646L365.79001 550.752862l-263.917832-39.507806c-11.399631-1.961678-20.774139-10.060123-24.355711-21.054525-3.613294-10.963703-0.778736-23.047926 7.257288-31.332612l191.202717-196.684568-45.6282-277.132808c-1.930979-11.741415 3.0208-23.608697 12.769838-30.491455 9.717316-6.882757 22.549575-7.630794 32.983205-1.868557l235.366565 129.47177 234.868215-130.282229c4.703115-2.616594 9.904581-3.924379 15.106046-3.924379 6.291287 0 12.551874 1.868557 17.877159 5.699816 9.748015 6.852058 14.763239 18.687618 12.862959 30.460756L747.488339 261.364939l191.669344 195.84341C947.286828 465.523735 950.121386 477.7635 946.44567 488.820324z"  horiz-adv-x="1024" />

    
    <glyph glyph-name="31wangwangxuanzhong" unicode="&#58937;" d="M511.731894 818.908204c-72.744791 0-145.152914-18.522865-209.462592-53.581336-35.272341 24.254404-95.807043 50.478671-122.749672 56.148811-3.714602 1.084705-6.862291 1.542122-10.943236 1.603521l-2.535753-0.076748c-1.314948-0.01535-2.093684-0.046049-2.889817-0.198521-8.833179-1.465374-16.519232-6.233981-21.624507-13.402241-4.768607-6.678096-6.739495-14.824637-5.455245-22.189372 0.321318-4.860704 0.947582-10.101055 3.270487-15.528672 21.50478-44.488237 18.925025-106.664322 17.141402-131.023102-49.64263-62.769602-62.61099-114.316605-64.797795-124.764562-8.021697-22.618137-17.110703-103.20657-17.110703-121.476679 0-249.932306 192.024431-445.702038 437.158455-445.702038 241.342674 0 437.693644 195.189518 437.693644 435.095469C949.425537 623.734036 753.074567 818.908204 511.731894 818.908204zM592.423681 408.968671c0-31.389918-22.618137-56.912198-50.432623-56.912198-27.813462 0-50.431599 25.52228-50.431599 56.912198l0 59.357899c0 31.389918 22.618137 56.927547 50.431599 56.927547 27.815509 0 50.432623-25.537629 50.432623-56.927547L592.423681 408.968671zM770.343883 408.968671c0-31.389918-22.618137-56.912198-50.432623-56.912198-27.813462 0-50.432623 25.52228-50.432623 56.912198l0 59.357899c0 31.389918 22.620184 56.927547 50.432623 56.927547 27.815509 0 50.432623-25.537629 50.432623-56.927547L770.343883 408.968671z"  horiz-adv-x="1024" />

    
    <glyph glyph-name="shouji" unicode="&#59028;" d="M752.246154-212 271.753846-212c-70.892308 0-126.030769 59.076923-126.030769 126.030769L145.723077 682.030769C145.723077 752.923077 200.861538 812 271.753846 812l480.492308 0c70.892308 0 126.030769-59.076923 126.030769-126.030769l0-768C878.276923-152.923077 823.138462-212 752.246154-212L752.246154-212 752.246154-212zM815.261538 682.030769c0 35.446154-27.569231 63.015385-63.015385 63.015385L271.753846 745.046154c-35.446154 0-63.015385-27.569231-63.015385-63.015385l0-31.507692 606.523077 0L815.261538 682.030769 815.261538 682.030769 815.261538 682.030769zM815.261538 587.507692 208.738462 587.507692l0-512 606.523077 0L815.261538 587.507692 815.261538 587.507692 815.261538 587.507692zM815.261538 12.492308 208.738462 12.492308l0-94.523077c0-35.446154 27.569231-63.015385 63.015385-63.015385l480.492308 0c35.446154 0 63.015385 27.569231 63.015385 63.015385L815.261538 12.492308 815.261538 12.492308 815.261538 12.492308zM512-117.476923c-27.569231 0-47.261538 19.692308-47.261538 47.261538s19.692308 47.261538 47.261538 47.261538c27.569231 0 47.261538-19.692308 47.261538-47.261538S539.569231-117.476923 512-117.476923L512-117.476923 512-117.476923zM512-117.476923"  horiz-adv-x="1024" />

    
    <glyph glyph-name="close" unicode="&#58949;" d="M162.510592 671.619256l61.86318 61.86318 637.101895-637.101895-61.86318-61.86318-637.101895 637.101895ZM799.619052 733.489408l61.86318-61.86318-637.101895-637.101895-61.86318 61.86318 637.101895 637.101895Z"  horiz-adv-x="1024" />

    
    <glyph glyph-name="sjh" unicode="&#58909;" d="M789.125645 453.2809l-17.320481 0L771.805164 765.047506c0 19.131733-15.508205 34.640961-34.640961 34.640961L286.834774 799.688467c-19.131733 0-34.640961-15.508205-34.640961-34.640961L252.193813 661.127691 234.873332 661.127691l0-138.564869 17.320481 0 0-519.611352c0-19.131733 15.508205-34.638915 34.640961-34.638915l450.330452 0c19.131733 0 34.640961 15.507182 34.640961 34.638915L771.806187 314.720124l17.320481 0L789.126668 453.2809zM581.2809 2.950448 442.718077 2.950448l0 34.641985 138.562822 0L581.2809 2.950448zM737.165226 89.552851c0-9.565866-7.754614-17.320481-17.320481-17.320481L304.155255 72.23237c-9.565866 0-17.320481 7.754614-17.320481 17.320481L286.834774 713.087087c0 9.565866 7.754614 17.322527 17.320481 17.322527l415.689491 0c9.565866 0 17.320481-7.755638 17.320481-17.322527L737.165226 89.552851z"  horiz-adv-x="1024" />

    
    <glyph glyph-name="weixin" unicode="&#58911;" d="M498.816 550.944c26.336 0 43.936 17.632 43.936 43.904 0 26.56-17.568 43.744-43.936 43.744s-52.832-17.184-52.832-43.744c0.032-26.272 26.496-43.904 52.832-43.904zM253.088 638.592c-26.336 0-52.96-17.184-52.96-43.744 0-26.272 26.624-43.904 52.96-43.904 26.24 0 43.808 17.632 43.808 43.904-0.032 26.56-17.568 43.744-43.808 43.744zM1024 269.888c0 138.88-128.832 257.216-286.976 269.536 0.224 1.728 0.32 3.52-0.064 5.312-31.712 147.84-190.688 259.296-369.824 259.296-202.432 0-367.136-141.152-367.136-314.656 0-93.088 47.52-176.96 137.568-243.104l-31.392-94.368c-2.016-6.144-0.192-12.896 4.704-17.152 2.976-2.56 6.72-3.904 10.496-3.904 2.432 0 4.896 0.576 7.168 1.696l117.856 58.976 14.528-2.944c36.288-7.456 67.616-13.92 106.208-13.92 11.36 0 22.88 0.512 34.176 1.472 4.576 0.384 8.448 2.688 11.072 6.016 42.496-106.336 159.616-183.104 297.44-183.104 35.296 0 71.040 8.512 103.104 16.544l90.848-49.664c2.4-1.312 5.056-1.984 7.68-1.984 3.584 0 7.168 1.216 10.048 3.552 5.056 4.096 7.136 10.848 5.248 17.024l-23.2 77.152c77.792 61.472 120.448 135.008 120.448 208.224zM398.592 208.032c-10.4-0.896-20.96-1.344-31.424-1.344-35.328 0-65.216 6.112-99.776 13.248l-20.096 4.064c-3.456 0.736-7.104 0.256-10.272-1.376l-88.288-44.192 22.944 68.928c2.24 6.752-0.224 14.112-6.016 18.176-88.704 61.824-133.664 137.152-133.664 223.84 0 155.84 150.336 282.656 335.136 282.656 163.36 0 308-99.392 337.856-231.584-171.296-2.24-309.888-122.656-309.888-270.56 0-21.504 3.264-42.336 8.768-62.432-1.664 0.416-3.424 0.736-5.28 0.576zM875.456 80.448c-5.344-4.032-7.616-10.976-5.696-17.376l15.136-50.336-62.112 33.984c-2.368 1.312-5.024 1.984-7.68 1.984-1.312 0-2.624-0.16-3.904-0.512-33.312-8.416-67.776-17.088-101.344-17.088-155.904 0-282.72 107.136-282.72 238.816 0 131.68 126.816 238.784 282.72 238.784 152.928 0 282.144-109.344 282.144-238.784 0-65.664-41.376-132.96-116.544-189.472zM612.992 384.032c-17.568 0-35.136-17.696-35.136-35.232 0-17.664 17.568-35.104 35.136-35.104 26.4 0 43.84 17.44 43.84 35.104 0 17.568-17.44 35.232-43.84 35.232zM806.016 384.032c-17.312 0-34.88-17.696-34.88-35.232 0-17.664 17.568-35.104 34.88-35.104 26.304 0 44.064 17.44 44.064 35.104 0 17.568-17.728 35.232-44.064 35.232z"  horiz-adv-x="1024" />

    
    <glyph glyph-name="liebiao" unicode="&#58952;" d="M54.023916 711.207273l130.195248 0 0-130.768299L54.023916 580.438974 54.023916 711.207273zM271.589047 711.207273l698.386014 0 0-130.768299L271.589047 580.438974 271.589047 711.207273zM54.023916 449.097624l130.195248 0 0-130.768299L54.023916 318.329325 54.023916 449.097624zM271.589047 449.097624l698.386014 0 0-130.768299L271.589047 318.329325 271.589047 449.097624zM54.023916 187.561026l130.195248 0 0-130.768299L54.023916 56.792727 54.023916 187.561026zM271.589047 187.561026l698.386014 0 0-130.768299L271.589047 56.792727 271.589047 187.561026z"  horiz-adv-x="1024" />

    
    <glyph glyph-name="youxiang" unicode="&#59013;" d="M158.251745 103.597729c-35.228339 0-63.888076 28.661783-63.888076 63.891146L94.363669 601.016639c0 35.262108 28.659737 63.951521 63.888076 63.951521l707.033975 0c35.246759 0 63.920822-28.688389 63.920822-63.951521l0-433.527764c0-35.229362-28.674063-63.891146-63.920822-63.891146L158.251745 103.597729zM158.302911 140.227997 865.331769 140.227997 625.544521 353.143225l-40.907689-35.979446c-20.211321-17.500583-44.064588-26.0237-72.881914-26.0237-28.471448 0-52.934606 8.761548-72.712045 26.03905l-40.924061 35.96205L158.302911 140.227997zM652.638599 381.956458l238.011812-214.715223L890.650411 590.762087 652.638599 381.956458zM132.920824 167.243281l238.075257 214.713176L132.920824 590.760041 132.920824 167.243281zM452.457394 365.835292c26.165939-23.274076 45.562708-34.590819 59.298548-34.590819 13.776771 0 33.19503 11.316743 59.365062 34.597983l295.928896 262.527159L156.488589 628.369613 452.457394 365.835292z"  horiz-adv-x="1024" />

    
    <glyph glyph-name="gouwuche" unicode="&#59236;" d="M353 57.5c-10.594 0-20.157-2.501-28.691-7.504-8.535-5.003-15.302-11.918-20.305-20.746S296.5 11.005 296.5 1c0-15.891 5.444-29.28 16.332-40.168C323.72-50.056 337.109-55.5 353-55.5c10.005 0 19.274 2.501 27.809 7.504 8.535 5.003 15.45 11.918 20.747 20.746S409.5-9.005 409.5 1c0 15.891-5.591 29.28-16.773 40.168C381.544 52.057 368.302 57.5 353 57.5zM801 53c-14.625 0-26.948-5.011-36.969-15.031S749 15.625 749 1c0-9.208 2.302-17.875 6.906-26s10.833-14.489 18.688-19.094S791.25-51 801-51c14.083 0 26.271 5.011 36.563 15.031S853-13.625 853 1c0 9.208-2.438 17.875-7.313 26s-11.239 14.489-19.094 19.094S810.208 53 801 53zM865 105 345 105c-22.667 0-36-2-54 14s-28.333 35.667-31 59l-54 382-31 179c-1.333 7.333-6 20.833-12 26.5S144.667 776 138 776L97 776c-6 0-11.333 1.5-16 4.5s-8.5 6.833-11.5 11.5S65 801 65 807c0 8.667 2.167 12.167 8.5 18.5S88.333 833 97 833l41 0c15.333 0 29.833-3.667 43.5-11s24.833-17.333 33.5-30 14-26.667 16-42l31-178 54-384c1.333-7.333 4.833-13.667 10.5-19s11.833-8 18.5-8l520 0c8.667 0 16.167-3.167 22.5-9.5s9.5-9.833 9.5-18.5-3.167-12.167-9.5-18.5S873.667 105 865 105zM386 225c-5.333 0-11.333-0.667-16 2s-8.5 3.167-11.5 7.5-4.833 9.5-5.5 15.5c-0.667 8.667 2 11.333 8 18s13.333 10.333 22 11l446 36c8 0 15 2.667 21 8s9.333 11.667 10 19l52 306c0 4-0.167 7.667-0.5 11s-1.167 6.667-2.5 10-3.333 6.333-6 9l-5 5-4 0-2 2-570-2c-8.667 0-16.167 3.167-22.5 9.5S290 706.333 290 715s3.167 6.167 9.5 12.5 13.833 9.5 22.5 9.5l554 0c25.333 0 48.333-7.667 65-27 20-22 26-51 22-83l-51-289c-2.667-22-9.833-43-27.5-59s-41.167-22-64.5-22L386 225z"  horiz-adv-x="1024" />

    
    <glyph glyph-name="search" unicode="&#58942;" d="M621.664 242.336c-44.48-31.68-98.88-50.336-157.664-50.336-150.208 0-272 121.792-272 272s121.792 272 272 272c150.208 0 272-121.792 272-272 0-75.104-30.432-143.104-79.68-192.32l191.904-191.904c8.8-8.8 8.576-22.912-0.256-31.744-8.896-8.896-23.04-8.96-31.744-0.256l-194.592 194.592zM464 224c132.544 0 240 107.456 240 240s-107.456 240-240 240c-132.544 0-240-107.456-240-240s107.456-240 240-240l0 0z"  horiz-adv-x="1024" />

    
    <glyph glyph-name="huo" unicode="&#58885;" d="M390.4-64c0 0-204.8 38.4-204.8 288s160 230.4 160 435.2c0 0 83.2-102.4 44.8-198.4 0 0 115.2 76.8 115.2 390.4 0 0 620.8-646.4 57.6-921.6 0 0 38.4 96 25.6 153.6-12.8 57.6-96 83.2-115.2 147.2-19.2 64 19.2 134.4 51.2 160C531.2 396.8 185.6 288 390.4-64z"  horiz-adv-x="1024" />

    
    <glyph glyph-name="yinhao" unicode="&#59052;" d="M500.50776 574.748369l-71.234391 134.906549c-94.474698-41.420365-161.169703-89.164762-200.068641-143.229099-38.908148-54.06843-58.358129-127.823224-58.358129-221.309408l0-253.846452 329.661162 0 0 306.152748L342.880743 397.422707c2.52245 36.899398 14.898315 68.833715 37.128619 95.846952C402.239666 520.321782 442.40955 547.456792 500.50776 574.748369zM764.23935 493.268636c22.231327 27.053146 62.400189 54.188156 120.498398 81.479733l-71.245647 134.906549c-94.475721-41.420365-161.157423-89.164762-200.067618-143.229099-38.898939-54.06843-58.349943-127.823224-58.349943-221.309408l0-253.846452 329.662185 0 0 306.152748L727.100498 397.422707C729.630111 434.321082 742.006999 466.255399 764.23935 493.268636z"  horiz-adv-x="1024" />

    
    <glyph glyph-name="bowuguan" unicode="&#58908;" d="M896.784 20.688 876.432 65.376 152 65.376 131.712 20.688 69.536 20.688 69.536-22.352 958.928-22.352 958.928 20.688ZM514.192 693.296 115.664 544.016l0-33.92 797.104 0 0 33.92L514.192 693.296zM448.288 553.712c0 36.416 29.52 65.92 65.904 65.92 36.448 0 65.968-29.504 65.968-65.92L448.288 553.712zM279.984 479.04 138.496 479.04 138.496 438.384 169.328 438.384 169.328 93.824 249.152 93.824 249.152 438.384 279.984 438.384ZM483.312 479.04 341.84 479.04 341.84 438.384 372.672 438.384 372.672 93.824 452.48 93.824 452.48 438.384 483.312 438.384ZM686.64 479.04 545.136 479.04 545.136 438.384 575.984 438.384 575.984 93.824 655.792 93.824 655.792 438.384 686.64 438.384ZM889.936 479.04 748.496 479.04 748.496 438.384 779.28 438.384 779.28 93.824 859.088 93.824 859.088 438.384 889.936 438.384Z"  horiz-adv-x="1024" />

    
    <glyph glyph-name="shijian2" unicode="&#58923;" d="M511.995743 809.775719C276.254009 809.775719 85.160617 618.677461 85.160617 382.932079c0-235.741733 191.093392-426.835126 426.835126-426.835126 235.740517 0 426.84364 191.093392 426.84364 426.835126C938.839383 618.667731 747.73626 809.775719 511.995743 809.775719L511.995743 809.775719 511.995743 809.775719 511.995743 809.775719zM657.192859 220.816078l-15.089553-15.095635c-8.334162-8.332946-21.851026-8.332946-30.185188 0L473.515314 344.137842c-4.788616 4.780102-4.199922 14.391391-4.199922 23.860371l0 271.042725c0 11.78362 9.558988 21.342608 21.342608 21.342608l21.337742 0c11.792134 0 21.342608-9.558988 21.342608-21.342608l0-264.186381 123.854508-123.854508C665.525805 242.662239 665.525805 229.153889 657.192859 220.816078L657.192859 220.816078 657.192859 220.816078 657.192859 220.816078zM657.192859 220.816078"  horiz-adv-x="1024" />

    
    <glyph glyph-name="icon" unicode="&#58953;" d="M399.399 383.754l292.155 292.16c12.278 12.27 12.278 32.186 0 44.457-12.27 12.278-32.186 12.278-44.457 0l-314.387-314.389c-12.281-12.27-12.281-32.186 0-44.457l314.388-314.388c6.137-6.14 14.183-9.211 22.228-9.211s16.092 3.071 22.228 9.211c12.281 12.27 12.281 32.186 0 44.457l-292.157 292.161z"  horiz-adv-x="1024" />

    
    <glyph glyph-name="dingwei" unicode="&#58945;" d="M551.029922 33.176866c0 0-292.109917 372.72291-292.109917 532.49887 0 159.747307 130.794905 289.255916 292.109917 289.255916 161.302733 0 292.090475-129.492236 292.090475-289.255916C843.116303 405.895683 551.029922 33.176866 551.029922 33.176866L551.029922 33.176866 551.029922 33.176866zM547.999912 688.772308c-68.657706 0-124.33989-55.126528-124.33989-123.156948 0-67.99358 55.67502-123.120109 124.33989-123.120109 68.693522 0 124.352169 55.126528 124.352169 123.120109C672.352081 633.625314 616.697527 688.772308 547.999912 688.772308L547.999912 688.772308 547.999912 688.772308zM547.999912 688.772308"  horiz-adv-x="1024" />

    
    <glyph glyph-name="anquanzhongxin" unicode="&#59089;" d="M524.49 803.635c111.715-76.925 289.834-114.221 365.769-127.296 2.889-26.611 4.368-53.059 4.368-78.941 0-265.286-141.389-508.128-370.675-639.763-229.306 131.674-370.704 374.506-370.704 639.763 0 25.623 1.478 51.869 4.368 78.432 77.529 12.317 259.114 48.317 366.874 127.805v0zM523.223 864c-113.501-112.311-407.529-146.697-407.529-146.697-6.029-39.149-9.408-79.104-9.408-119.904 0-300.739 169.344-561.715 417.657-693.398 248.352 131.692 417.638 392.659 417.638 693.398 0 40.8-3.322 80.755-9.341 119.904 0.009 0-286.301 37.834-409.017 146.697zM241.933 614.256c-4.176-27.111-6.499-54.739-6.499-82.925 0-207.677 117.024-387.908 288.509-478.868 171.494 90.969 288.499 271.191 288.499 478.867 0 28.186-2.371 55.814-6.471 82.925 0 0-197.779 26.103-282.548 101.289-78.413-77.549-281.491-101.289-281.491-101.289z"  horiz-adv-x="1024" />

    
    <glyph glyph-name="more" unicode="&#59090;" d="M127.90803 127.93885799999998l768.179846 0 0 85.334442-768.179846 0L127.90803 127.93885799999998zM127.90803 341.360408l768.179846 0 0 85.342628-768.179846 0L127.90803 341.360408zM127.90803 554.7277240000001l768.179846 0 0 85.334442-768.179846 0L127.90803 554.7277240000001z"  horiz-adv-x="1024" />

    
    <glyph glyph-name="gerenzhuyesvg07-copy" unicode="&#58958;" d="M950.857 457.143h-365.714v365.714h-146.286v-365.714h-365.714v-146.286h365.714v-365.714h146.286v365.714h365.714z"  horiz-adv-x="1024" />

    
    <glyph glyph-name="bofang" unicode="&#58951;" d="M512 832C264.704 832 64 631.296 64 384s200.704-448 448-448 448 200.704 448 448S759.296 832 512 832L512 832 512 832M512-35.328C279.04-35.328 92.672 151.04 92.672 384S279.04 803.329 512 803.329 931.328 616.96 931.328 384 744.96-35.328 512-35.328L512-35.328 512-35.328M705.536 391.168 408.064 563.2c-3.584 3.584-7.168 3.584-10.753 0-3.583 0-7.167-3.584-7.167-7.168l0-344.063c0-3.584 3.584-7.168 3.584-7.168 3.583-3.584 7.167-3.584 10.752 0l301.056 172.032c3.584 3.584 3.584 3.584 3.584 7.168C712.704 387.584 709.12 391.168 705.536 391.168L705.536 391.168 705.536 391.168M705.536 391.168"  horiz-adv-x="1024" />

    
    <glyph glyph-name="zhanghuyue-copy" unicode="&#58892;" d="M511.554-2.243c-52.031 0-102.517 10.196-150.058 30.303-45.907 19.416-87.129 47.208-122.526 82.602-35.395 35.395-63.187 76.62-82.603 122.526-20.108 47.541-30.303 98.028-30.303 150.058s10.195 102.517 30.303 150.058c19.417 45.907 47.208 87.129 82.603 122.526s76.619 63.187 122.527 82.603c47.54 20.108 98.027 30.303 150.058 30.303 52.031 0 102.517-10.195 150.057-30.303 45.907-19.417 87.13-47.209 122.526-82.603 35.395-35.395 63.187-76.619 82.603-122.526 20.108-47.541 30.303-98.027 30.303-150.058s-10.196-102.517-30.303-150.058c-19.417-45.906-47.208-87.129-82.603-122.526-35.394-35.394-76.619-63.187-122.526-82.602-47.541-20.107-98.027-30.303-150.058-30.303zM511.554 722.316c-90.569 0-175.717-35.269-239.759-99.311s-99.311-149.19-99.311-239.759 35.269-175.717 99.311-239.759 149.19-99.311 239.759-99.311 175.717 35.269 239.759 99.311 99.311 149.19 99.311 239.759-35.269 175.716-99.311 239.759c-64.043 64.042-149.19 99.311-239.759 99.311zM696.705 619.913l-135.822-231.060h107.021v-51.056h-124.695v-70.366h124.694v-51.71h-124.694v-102.441h-64.147v102.44h-129.275v51.71h129.276v70.366h-129.276v51.056h110.294l-134.514 231.060h72.328c62.839-114.768 101.019-187.533 114.549-218.297h1.309c4.582 12.651 17.127 38.18 37.638 76.584l76.912 141.713 68.402 0.001z"  horiz-adv-x="1024" />

    
    <glyph glyph-name="jiantou2" unicode="&#58946;" d="M655.168 562.88l157.888-157.888c3.584-2.816 6.4-6.464 8-10.816 0.064-0.32 0.128-0.513 0.128-0.704 1.152-2.56 1.537-5.376 1.664-8.192 0-0.385 0.32-0.832 0.32-1.216 0-0.768-0.512-1.409-0.512-2.176-0.128-1.664-0.512-3.328-1.088-4.992-0.512-1.984-1.344-3.776-2.24-5.568-0.576-1.088-1.344-2.112-2.112-3.136-0.704-0.896-1.024-2.048-1.983-2.88l-160.064-160.128c-10.304-10.368-27.072-10.368-37.248 0-10.304 10.24-10.304 27.009 0 37.376l115.136 115.2h-256.767c-14.721 0-26.816 11.968-26.816 26.688s12.032 26.688 26.816 26.688h255.936l-114.304 114.433c-10.305 10.176-10.304 27.009 0 37.313 10.176 10.24 26.944 10.24 37.248 0zM378.56 384.256c0-14.721-11.968-26.688-26.688-26.688-14.655 0-26.624 11.903-26.624 26.688 0 14.784 11.968 26.688 26.624 26.688 14.784 0.064 26.688-11.904 26.688-26.688zM254.144 384.256c0-14.721-11.904-26.688-26.688-26.688-14.655 0-26.624 11.903-26.624 26.688 0 14.784 11.968 26.688 26.624 26.688 14.784 0.064 26.688-11.904 26.688-26.688z"  horiz-adv-x="1024" />

    
    <glyph glyph-name="etc" unicode="&#58893;" d="M516.096 809.984c-225.28 0-409.6-184.32-409.6-409.6 0-225.28 184.32-409.6 409.6-409.6 225.28 0 409.6 184.32 409.6 409.6C925.696 625.664 743.424 809.984 516.096 809.984zM514.048 113.664 337.92 363.52l174.08-104.448L512 113.664zM514.048 283.648l-178.176 106.496 178.176 296.96L514.048 283.648zM522.24 113.664l0 145.408L696.32 363.52 522.24 113.664zM520.192 283.648l0 403.456 178.176-296.96L520.192 283.648z"  horiz-adv-x="1024" />

    
    <glyph glyph-name="zixun" unicode="&#59014;" d="M197.485714 700.952381 197.485714 700.952381l0-670.47619c0-31.695238 24.380952-56.07619 56.07619-56.07619l558.32381 0c31.695238 0 56.07619 24.380952 56.07619 56.07619L867.961905 700.952381c0 31.695238-24.380952 56.07619-56.07619 56.07619L253.561905 757.028571C221.866667 757.028571 197.485714 732.647619 197.485714 700.952381L197.485714 700.952381 197.485714 700.952381zM141.409524 700.952381c0 60.952381 51.2 112.152381 112.152381 112.152381l558.32381 0c60.952381 0 112.152381-48.761905 112.152381-112.152381l0-670.47619c0-60.952381-51.2-112.152381-112.152381-112.152381L253.561905-81.67619c-60.952381 0-112.152381 48.761905-112.152381 112.152381L141.409524 700.952381 141.409524 700.952381 141.409524 700.952381zM280.380952 588.8l168.228571 0c14.628571 0 26.819048 12.190476 26.819048 26.819048 0 14.628571-12.190476 26.819048-26.819048 26.819048l-168.228571 0c-14.628571 0-26.819048-12.190476-26.819048-26.819048C253.561905 600.990476 265.752381 588.8 280.380952 588.8L280.380952 588.8 280.380952 588.8zM280.380952 198.704762l446.171429 0c14.628571 0 26.819048 12.190476 26.819048 26.819048s-12.190476 26.819048-26.819048 26.819048L280.380952 252.342857c-14.628571 0-26.819048-12.190476-26.819048-26.819048S265.752381 198.704762 280.380952 198.704762L280.380952 198.704762 280.380952 198.704762zM280.380952 310.857143l446.171429 0c14.628571 0 26.819048 12.190476 26.819048 26.819048 0 14.628571-12.190476 26.819048-26.819048 26.819048L280.380952 364.495238c-14.628571 0-26.819048-12.190476-26.819048-26.819048C253.561905 323.047619 265.752381 310.857143 280.380952 310.857143L280.380952 310.857143 280.380952 310.857143zM280.380952 476.647619l168.228571 0c14.628571 0 26.819048 12.190476 26.819048 26.819048 0 14.628571-12.190476 26.819048-26.819048 26.819048l-168.228571 0c-14.628571 0-26.819048-12.190476-26.819048-26.819048C253.561905 488.838095 265.752381 476.647619 280.380952 476.647619L280.380952 476.647619 280.380952 476.647619zM280.380952 86.552381l334.019048 0c14.628571 0 26.819048 12.190476 26.819048 26.819048 0 14.628571-12.190476 26.819048-26.819048 26.819048L280.380952 140.190476c-14.628571 0-26.819048-12.190476-26.819048-26.819048C253.561905 98.742857 265.752381 86.552381 280.380952 86.552381L280.380952 86.552381 280.380952 86.552381z"  horiz-adv-x="1024" />

    
    <glyph glyph-name="toufangwenan" unicode="&#58963;" d="M699.372002 18.354349 173.94968 18.354349C111.852677 18.354349 61.346314 67.539499 61.346314 128.015014L61.346314 786.27928C61.346314 846.754794 111.852677 895.939945 173.94968 895.939945L699.372002 895.939945C761.469005 895.939945 811.975368 846.754794 811.975368 786.27928L811.975368 128.015014C811.975368 67.539499 761.469005 18.354349 699.372002 18.354349L699.372002 18.354349ZM173.94968 822.852853C153.290716 822.852853 136.415225 806.397748 136.415225 786.27928L136.415225 128.015014C136.415225 107.836491 153.290716 91.44144 173.94968 91.44144L699.372002 91.44144C720.091021 91.44144 736.906457 107.836491 736.906457 128.015014L736.906457 786.27928C736.906457 806.397748 720.091021 822.852853 699.372002 822.852853L173.94968 822.852853 173.94968 822.852853ZM849.509823-127.939945 286.553047-127.939945C265.834027-127.939945 249.018591-111.60495 249.018591-91.366371 249.018591-71.127793 265.834027-54.792798 286.553047-54.792798L849.509823-54.792798C870.228843-54.792798 887.044279-38.397748 887.044279-18.219225L887.044279 676.55856C887.044279 696.737083 903.79966 713.132133 924.518679 713.132133 945.297754 713.132133 962.053135 696.737083 962.053135 676.55856L962.053135-18.219225C962.053135-78.754794 911.546771-127.939945 849.509823-127.939945L849.509823-127.939945ZM549.23418 603.411413 249.018591 603.411413C228.299572 603.411413 211.484136 619.806463 211.484136 639.984986 211.484136 660.163509 228.299572 676.55856 249.018591 676.55856L549.23418 676.55856C570.013254 676.55856 586.768635 660.163509 586.768635 639.984986 586.768635 619.806463 570.013254 603.411413 549.23418 603.411413L549.23418 603.411413ZM624.303091 420.603601 249.018591 420.603601C228.299572 420.603601 211.544191 436.938596 211.544191 457.117119 211.544191 477.355698 228.299572 493.690693 249.018591 493.690693L624.303091 493.690693C645.082165 493.690693 661.837546 477.355698 661.837546 457.117119 661.837546 436.938596 645.082165 420.603601 624.303091 420.603601L624.303091 420.603601ZM624.303091 237.735734 249.018591 237.735734C228.299572 237.735734 211.484136 254.070729 211.484136 274.309307 211.484136 294.547886 228.299572 310.882881 249.018591 310.882881L624.303091 310.882881C645.082165 310.882881 661.837546 294.547886 661.837546 274.309307 661.837546 254.070729 645.082165 237.735734 624.303091 237.735734L624.303091 237.735734Z"  horiz-adv-x="1024" />

    
    <glyph glyph-name="yinhangqiashezhi" unicode="&#58882;" d="M896-32.256H128a128 128 0 0 0-128 128.064V672.192a128 128 0 0 0 128 128.064h768a128 128 0 0 0 128-128.064v-576.384a128 128 0 0 0-128-128.064z m-768 64h768a64 64 0 0 1 64.064 64.064V544.128H63.936v-448.32A64 64 0 0 1 128 31.744zM896 736.256H128A64 64 0 0 1 63.936 672.192v-64.064h896.128V672.192A64 64 0 0 1 896 736.256zM159.936 351.936H480a32 32 0 0 0 0-64H159.936a32 32 0 0 0 0 64z m0-128H416a32.064 32.064 0 0 0 0-64.064H159.936a32 32 0 0 0 0 64.064z m448.064 128h63.936a32 32 0 1 0 0-64H608a32 32 0 0 0 0 64z m0 0"  horiz-adv-x="1024" />

    
    <glyph glyph-name="zhizhang" unicode="&#58906;" d="M880.688819 461.876718m-4.309533 0a4.309533 4.309533 0 1 1 8.619066 0 4.309533 4.309533 0 1 1-8.619066 0ZM155.65719 631.796631m-4.309533 0a4.309533 4.309533 0 1 1 8.619067 0 4.309533 4.309533 0 1 1-8.619067 0ZM428.801126 828.599677m-4.309533 0a4.309533 4.309533 0 1 1 8.619067 0 4.309533 4.309533 0 1 1-8.619067 0ZM784.852129 809.720255m-4.309534 0a4.309533 4.309533 0 1 1 8.619067 0 4.309533 4.309533 0 1 1-8.619067 0ZM116.870367 354.75374m-4.309534 0a4.309533 4.309533 0 1 1 8.619067 0 4.309533 4.309533 0 1 1-8.619067 0ZM155.65719 788.377366h-7.182555v7.182555c0 3.898955-3.2836 7.182556-7.182556 7.182556s-7.182556-3.2836-7.182555-7.182556v-7.182555h-7.182556c-3.898955 0-7.182556-3.2836-7.182555-7.182556s3.2836-7.182556 7.182555-7.182555h7.182556v-7.182556c0-3.898955 3.2836-7.182556 7.182555-7.182555s7.182556 3.2836 7.182556 7.182555v7.182556h7.182555c3.898955 0 7.182556 3.2836 7.182556 7.182555s-3.2836 7.182556-7.182556 7.182556zM735.189595 824.085366m-6.3614 0a6.3614 6.3614 0 1 1 12.722799 0 6.3614 6.3614 0 1 1-12.722799 0ZM859.141152 524.263075m-6.361399 0a6.3614 6.3614 0 1 1 12.722799 0 6.3614 6.3614 0 1 1-12.722799 0ZM840.466508 706.085654a24.347993 24.347993 0 0 0-24.420689 24.420689 24.347993 24.347993 0 0 0 24.420689 24.420689 24.347993 24.347993 0 0 0 24.420689-24.420689 24.347993 24.347993 0 0 0-24.420689-24.420689z m0 34.476267c-5.541267 0-10.055578-4.51431-10.055578-10.055578s4.51431-10.055578 10.055578-10.055577 10.055578 4.51431 10.055578 10.055577c0 5.540243-4.515334 10.055578-10.055578 10.055578zM909.419041 156.308381h-7.182555v7.182556c0 3.898955-3.2836 7.182556-7.182556 7.182556s-7.182556-3.2836-7.182556-7.182556v-7.182556h-7.182555c-3.898955 0-7.182556-3.2836-7.182556-7.182555s3.2836-7.182556 7.182556-7.182556h7.182555v-7.182555c0-3.898955 3.2836-7.182556 7.182556-7.182556s7.182556 3.2836 7.182556 7.182556v7.182555h7.182555c3.898955 0 7.182556 3.2836 7.182556 7.182556s-3.2836 7.182556-7.182556 7.182555zM141.292079 264.458317h-7.182555v7.182555c0 3.898955-3.2836 7.182556-7.182556 7.182556s-7.182556-3.2836-7.182555-7.182556v-7.182555h-7.182556c-3.898955 0-7.182556-3.2836-7.182555-7.182556s3.2836-7.182556 7.182555-7.182555h7.182556v-7.182556c0-3.898955 3.2836-7.182556 7.182555-7.182556s7.182556 3.2836 7.182556 7.182556v7.182556h7.182555c3.898955 0 7.182556 3.2836 7.182556 7.182555s-3.2836 7.182556-7.182556 7.182556zM195.879501-27.566065c-9.440223 0-17.238133 7.797911-17.238133 17.238134 0 9.440223 7.797911 17.238133 17.238133 17.238133 9.440223 0 17.238133-7.797911 17.238134-17.238133 0-9.439199-7.797911-17.238133-17.238134-17.238134z m0 20.111156c-1.641288 0-2.873022-1.231734-2.873022-2.873022s1.231734-2.873022 2.873022-2.873022 2.873022 1.231734 2.873023 2.873022c0 1.642312-1.231734 2.873022-2.873023 2.873022zM192.595901 777.295855h498.061849v-699.789784H192.595901zM690.65775 65.192826H192.595901c-6.771978 0-12.313245 5.541267-12.313245 12.313245V777.295855c0 6.771978 5.541267 12.313245 12.313245 12.313245h498.061849c6.771978 0 12.313245-5.541267 12.313245-12.313245v-699.789784c0-6.773001-5.541267-12.313245-12.313245-12.313245z m-485.748604 24.625466h473.435359V764.98261H204.909146v-675.164318zM254.161102 713.678788h498.061849V13.889004H254.161102zM752.222951 1.574736H254.161102c-6.771978 0-12.313245 5.541267-12.313245 12.313245V713.678788c0 6.771978 5.541267 12.313245 12.313245 12.313245h498.061849c6.771978 0 12.313245-5.541267 12.313245-12.313245V13.889004c0-6.773001-5.541267-12.314269-12.313245-12.314268z m-485.748604 24.626489h473.435359V701.365543H266.474347v-675.164318zM315.726303 652.113587h498.061849v-699.789783H315.726303zM813.788152-59.990465H315.726303c-6.771978 0-12.313245 5.541267-12.313245 12.313245V652.113587c0 6.771978 5.541267 12.313245 12.313245 12.313245h498.061849c6.771978 0 12.313245-5.541267 12.313245-12.313245V-47.67722c0-6.771978-5.541267-12.313245-12.313245-12.313245z m-485.748604 24.62649h473.435359V639.800342H328.039548v-675.164317zM741.346217 427.400451H388.373014c-6.771978 0-12.313245 5.541267-12.313245 12.313245s5.541267 12.313245 12.313245 12.313245h352.973203c6.771978 0 12.313245-5.541267 12.313245-12.313245s-5.541267-12.313245-12.313245-12.313245zM627.040683 517.491097h-238.667669c-6.771978 0-12.313245 5.541267-12.313245 12.313245s5.541267 12.313245 12.313245 12.313245h238.667669c6.771978 0 12.313245-5.541267 12.313245-12.313245 0-6.773001-5.541267-12.313245-12.313245-12.313245zM741.346217 371.991873H388.373014c-6.771978 0-12.313245 5.541267-12.313245 12.313245s5.541267 12.313245 12.313245 12.313245h352.973203c6.771978 0 12.313245-5.541267 12.313245-12.313245s-5.541267-12.313245-12.313245-12.313245zM741.346217 316.583295H388.373014c-6.771978 0-12.313245 5.541267-12.313245 12.313245s5.541267 12.313245 12.313245 12.313245h352.973203c6.771978 0 12.313245-5.541267 12.313245-12.313245s-5.541267-12.313245-12.313245-12.313245zM741.346217 261.174716H388.373014c-6.771978 0-12.313245 5.541267-12.313245 12.313245s5.541267 12.313245 12.313245 12.313245h352.973203c6.771978 0 12.313245-5.541267 12.313245-12.313245s-5.541267-12.313245-12.313245-12.313245zM741.346217 205.766138H388.373014c-6.771978 0-12.313245 5.541267-12.313245 12.313245s5.541267 12.313245 12.313245 12.313245h352.973203c6.771978 0 12.313245-5.541267 12.313245-12.313245s-5.541267-12.313245-12.313245-12.313245zM741.346217 150.35756H388.373014c-6.771978 0-12.313245 5.541267-12.313245 12.313245s5.541267 12.313245 12.313245 12.313245h352.973203c6.771978 0 12.313245-5.541267 12.313245-12.313245s-5.541267-12.313245-12.313245-12.313245zM741.346217 94.948982H388.373014c-6.771978 0-12.313245 5.541267-12.313245 12.313245s5.541267 12.313245 12.313245 12.313245h352.973203c6.771978 0 12.313245-5.541267 12.313245-12.313245s-5.541267-12.313245-12.313245-12.313245zM627.040683 39.540403h-238.667669c-6.771978 0-12.313245 5.541267-12.313245 12.313245s5.541267 12.313245 12.313245 12.313245h238.667669c6.771978 0 12.313245-5.541267 12.313245-12.313245s-5.541267-12.313245-12.313245-12.313245z"  horiz-adv-x="1024" />

    
    <glyph glyph-name="wenjianjia" unicode="&#58907;" d="M145.380453 289.865007c-11.472635 0-20.73163 9.258995-20.73163 20.73163 0 11.472635 9.258995 20.73163 20.73163 20.73163 11.472635 0 20.73163-9.258995 20.73163-20.73163 0-11.472635-9.258995-20.73163-20.73163-20.73163z m0 27.373574c-3.622506 0-6.641944-3.019438-6.641944-6.641944s3.019438-6.641944 6.641944-6.641944c3.622506 0 6.641944 3.019438 6.641944 6.641944s-3.019438 6.641944-6.641944 6.641944zM890.711632 415.865359m-4.226598 0a4.226599 4.226599 0 1 1 8.453197 0 4.226599 4.226599 0 1 1-8.453197 0ZM347.664358 826.472043m-4.226599 0a4.226599 4.226599 0 1 1 8.453197 0 4.226599 4.226599 0 1 1-8.453197 0ZM917.482138 154.808389m-4.226599 0a4.226599 4.226599 0 1 1 8.453198 0 4.226599 4.226599 0 1 1-8.453198 0ZM900.57472 741.73427c-13.283888 0-23.951749 10.667861-23.95175 23.951749s10.667861 23.951749 23.95175 23.95175 23.951749-10.667861 23.951749-23.95175-10.667861-23.951749-23.951749-23.951749z m0 33.813813c-5.434783 0-9.863087-4.428304-9.863088-9.863088s4.428304-9.863087 9.863088-9.863087c5.434783 0 9.863087 4.428304 9.863087 9.863087s-4.429328 9.863087-9.863087 9.863088zM131.89486 135.888013h-7.044331v7.044331c0 3.824212-3.220119 7.044331-7.044331 7.044331s-7.044331-3.220119-7.044331-7.044331v-7.044331h-7.044331c-3.824212 0-7.044331-3.220119-7.044331-7.044331s3.220119-7.044331 7.044331-7.044332h7.044331v-7.044331c0-3.824212 3.220119-7.044331 7.044331-7.044331s7.044331 3.220119 7.044331 7.044331v7.044331h7.044331c3.824212 0 7.044331 3.220119 7.044331 7.044332s-3.220119 7.044331-7.044331 7.044331zM117.805174 798.09199m-6.239557 0a6.239557 6.239557 0 1 1 12.479114 0 6.239557 6.239557 0 1 1-12.479114 0ZM613.753724 798.09199m-6.239558 0a6.239557 6.239557 0 1 1 12.479115 0 6.239557 6.239557 0 1 1-12.479115 0ZM85.600909 238.740365m-6.239557 0a6.239557 6.239557 0 1 1 12.479114 0 6.239557 6.239557 0 1 1-12.479114 0ZM897.152895 564.408594m-6.239557 0a6.239557 6.239557 0 1 1 12.479114 0 6.239557 6.239557 0 1 1-12.479114 0ZM931.5708 273.361h-7.044331v7.044331c0 3.824212-3.220119 7.044331-7.044331 7.044331s-7.044331-3.220119-7.044331-7.044331v-7.044331h-7.044331c-3.824212 0-7.044331-3.220119-7.044331-7.044331s3.220119-7.044331 7.044331-7.044332h7.044331v-7.044331c0-3.824212 3.220119-7.044331 7.044331-7.044331s7.044331 3.220119 7.044331 7.044331v7.044331h7.044331c3.824212 0 7.044331 3.220119 7.044331 7.044332s-3.220119 7.044331-7.044331 7.044331zM142.562721 535.62513h-7.044331v7.044331c0 3.824212-3.220119 7.044331-7.044331 7.044331s-7.044331-3.220119-7.044331-7.044331v-7.044331h-7.044331c-3.824212 0-7.044331-3.220119-7.044331-7.044331s3.220119-7.044331 7.044331-7.044331h7.044331v-7.044331c0-3.824212 3.220119-7.044331 7.044331-7.044331s7.044331 3.220119 7.044331 7.044331v7.044331h7.044331c3.824212 0 7.044331 3.220119 7.044331 7.044331s-3.220119 7.044331-7.044331 7.044331zM257.491801-48.281312h-10.667861c-28.78244 0-52.131121 23.348681-52.131122 52.131121V705.302382c0 28.78244 23.348681 52.131121 52.131122 52.131121h10.667861V-48.281312zM355.715168 759.244757h53.1376v-805.714816h-53.1376zM358.5329-48.281312h-77.491737c-26.971187 0-48.911002 21.938791-48.911002 48.909978V708.523525c0 26.971187 21.938791 48.911002 48.911002 48.911002h77.491737v-805.715839zM405.833331 757.433503h40.658486V-48.281312h-40.658486zM565.044427 759.244757h61.590798v-805.714816H565.044427zM446.290112 757.433503h127.005807V-48.281312H446.290112zM619.993281 757.433503h40.658486V-48.281312h-40.658486zM775.983234-46.470059h-15.498552V759.244757h15.498552c34.015518 0 61.590798-27.57528 61.590798-61.590798v-682.533221c0-34.015518-27.574256-61.590798-61.590798-61.590797zM735.92884-48.281312h-75.278097V757.433503h75.278097c28.78244 0 52.331803-23.348681 52.331803-52.331802v-701.251892c-0.200682-28.581759-23.549362-52.131121-52.331803-52.131121zM257.491801 657.599565c-3.824212 0-7.044331 3.220119-7.044331 7.044331 0 31.197786 25.360616 56.559425 56.559425 56.559425 3.824212 0 7.044331-3.220119 7.044331-7.044331s-3.220119-7.044331-7.044331-7.044331c-23.348681 0-42.469739-19.121058-42.469739-42.469739-0.001024-3.824212-3.221143-7.045355-7.045355-7.045355zM257.491801 620.564609c-3.824212 0-7.044331 3.220119-7.044331 7.044331v11.070248c0 3.824212 3.220119 7.044331 7.044331 7.044331s7.044331-3.220119 7.044331-7.044331v-11.070248c0-3.824212-3.220119-7.044331-7.044331-7.044331zM257.491801 88.789288c-3.824212 0-7.044331 3.220119-7.044331 7.044331v66.019101c0 3.824212 3.220119 7.044331 7.044331 7.044332s7.044331-3.220119 7.044331-7.044332v-66.019101c0-3.824212-3.220119-7.044331-7.044331-7.044331zM474.267778 657.599565c-3.824212 0-7.044331 3.220119-7.044331 7.044331 0 31.197786 25.360616 56.559425 56.559425 56.559425 3.824212 0 7.044331-3.220119 7.044331-7.044331s-3.220119-7.044331-7.044331-7.044331c-23.348681 0-42.469739-19.121058-42.469739-42.469739 0-3.824212-3.221143-7.045355-7.045355-7.045355zM474.267778 620.564609c-3.824212 0-7.044331 3.220119-7.044331 7.044331v11.070248c0 3.824212 3.220119 7.044331 7.044331 7.044331s7.044331-3.220119 7.044331-7.044331v-11.070248c0.001024-3.824212-3.220119-7.044331-7.044331-7.044331zM474.267778 88.789288c-3.824212 0-7.044331 3.220119-7.044331 7.044331v66.019101c0 3.824212 3.220119 7.044331 7.044331 7.044332s7.044331-3.220119 7.044331-7.044332v-66.019101c0.001024-3.824212-3.220119-7.044331-7.044331-7.044331zM686.817156 657.599565c-3.824212 0-7.044331 3.220119-7.044331 7.044331 0 31.197786 25.360616 56.559425 56.559426 56.559425 3.824212 0 7.044331-3.220119 7.044331-7.044331s-3.220119-7.044331-7.044331-7.044331c-23.348681 0-42.469739-19.121058-42.46974-42.469739 0-3.824212-3.221143-7.045355-7.045355-7.045355zM686.817156 620.564609c-3.824212 0-7.044331 3.220119-7.044331 7.044331v11.070248c0 3.824212 3.220119 7.044331 7.044331 7.044331s7.044331-3.220119 7.044332-7.044331v-11.070248c0.001024-3.824212-3.220119-7.044331-7.044332-7.044331zM686.817156 88.789288c-3.824212 0-7.044331 3.220119-7.044331 7.044331v66.019101c0 3.824212 3.220119 7.044331 7.044331 7.044332s7.044331-3.220119 7.044332-7.044332v-66.019101c0.001024-3.824212-3.220119-7.044331-7.044332-7.044331zM402.210824 313.011983H201.536468c-3.824212 0-6.84365 3.019438-6.84365 6.843649v183.766938c0 3.824212 3.019438 6.84365 6.84365 6.84365h200.674356c3.824212 0 6.84365-3.019438 6.84365-6.84365v-183.766938c0-3.622506-3.221143-6.84365-6.84365-6.843649zM616.369751 313.011983H415.8971c-3.824212 0-6.84365 3.019438-6.84365 6.843649v183.766938c0 3.824212 3.019438 6.84365 6.84365 6.84365h200.674356c3.824212 0 6.84365-3.019438 6.84365-6.84365v-183.766938c-0.201705-3.622506-3.221143-6.84365-7.045355-6.843649zM623.2134 507.849169h214.360632V310.395956h-214.360632zM194.692818 507.849169h37.437343v-190.609564h-37.437343zM412.274593 507.849169h34.015519v-190.609564h-34.015519zM626.635225 507.849169h34.015518v-190.609564h-34.015518zM788.059961 507.849169h40.054394v-190.609564h-40.054394zM573.296943 507.044395h40.255075v-190.609564H573.296943zM358.5329 507.044395h40.054394v-190.609564h-40.054394zM363.767002 433.979938H239.98029c-6.641944 0-12.076727 5.434783-12.076727 12.076728s5.434783 12.076727 12.076727 12.076727h123.785688c6.641944 0 12.076727-5.434783 12.076728-12.076727s-5.433759-12.076727-12.075704-12.076728zM363.767002 389.698946H239.98029c-6.641944 0-12.076727 5.434783-12.076727 12.076727s5.434783 12.076727 12.076727 12.076728h123.785688c6.641944 0 12.076727-5.434783 12.076728-12.076728s-5.433759-12.076727-12.075704-12.076727zM730.494057 36.858848m-29.990625 0a29.990625 29.990625 0 1 1 59.98125 0 29.990625 29.990625 0 1 1-59.98125 0ZM785.44291 769.510231H623.2134c-6.641944 0-12.076727-5.434783-12.076727-12.076728v-805.51311c0-6.641944 5.434783-12.076727 12.076727-12.076727h162.22951c35.425408 0 64.207849 28.78244 64.207849 64.207848V167.689891c0 6.641944-5.434783 12.076727-12.076727 12.076727s-12.076727-5.434783-12.076728-12.076727v-163.638377c0-22.140496-17.913898-40.054394-40.054394-40.054394h-150.152782V298.117523h190.207176v-101.0411c0-6.641944 5.434783-12.076727 12.076728-12.076727s12.076727 5.434783 12.076727 12.076727v508.225959c0 35.425408-28.78244 64.207849-64.207849 64.207849z m40.054394-447.239253h-190.207176V495.570736h190.207176v-173.299758z m0 197.453213h-190.207176V745.356776h150.152782c22.140496 0 40.054394-17.913898 40.054394-40.054394v-185.578191zM668.500872 433.979938h123.785688c6.641944 0 12.076727 5.434783 12.076727 12.076728s-5.434783 12.076727-12.076727 12.076727H668.500872c-6.641944 0-12.076727-5.434783-12.076728-12.076727s5.434783-12.076727 12.076728-12.076728zM668.500872 389.698946h123.785688c6.641944 0 12.076727 5.434783 12.076727 12.076727s-5.434783 12.076727-12.076727 12.076728H668.500872c-6.641944 0-12.076727-5.434783-12.076728-12.076728s5.434783-12.076727 12.076728-12.076727zM688.427728 36.858848c0-23.146976 18.920377-42.067352 42.067353-42.067353s42.067352 18.920377 42.067352 42.067353-18.920377 42.067352-42.067352 42.067352-42.067352-18.920377-42.067353-42.067352z m59.980226 0c0-9.863087-8.05081-17.913898-17.913897-17.913898s-17.913898 8.05081-17.913898 17.913898 8.05081 17.913898 17.913898 17.913897 17.913898-8.05081 17.913897-17.913897zM301.772793 36.858848m-29.990625 0a29.990625 29.990625 0 1 1 59.98125 0 29.990625 29.990625 0 1 1-59.98125 0ZM194.692818 149.775993c6.641944 0 12.076727 5.434783 12.076728 12.076727V197.277105c0 6.641944-5.434783 12.076727-12.076728 12.076727s-12.076727-5.434783-12.076727-12.076727v-35.425408c0-6.64092 5.434783-12.075704 12.076727-12.075704zM409.054474 769.510231H246.82394c-35.424384 0-64.207849-28.78244-64.207849-64.207849v-66.623194c0-6.641944 5.434783-12.076727 12.076727-12.076727s12.076727 5.434783 12.076728 12.076727v66.623194c0 22.140496 17.913898 40.054394 40.054394 40.054394h150.152783v-225.632585h-190.207177v91.379717c0 6.641944-5.434783 12.076727-12.076728 12.076728s-12.076727-5.434783-12.076727-12.076728v-384.843681c0-6.641944 5.434783-12.076727 12.076727-12.076728s12.076727 5.434783 12.076728 12.076728v71.856272h190.207177v-334.322108h-150.152783c-22.140496 0-40.054394 17.913898-40.054394 40.054394V130.654935c0 6.641944-5.434783 12.076727-12.076728 12.076727s-12.076727-5.434783-12.076727-12.076727v-126.805126c0-35.424384 28.78244-64.207849 64.207849-64.207849h162.22951c6.641944 0 12.076727 5.434783 12.076727 12.076728V757.433503c0 6.641944-5.433759 12.076727-12.075703 12.076728z m-12.076728-447.239253h-190.207176V495.570736h190.207176v-173.299758zM343.840146 36.858848c0 23.146976-18.920377 42.067352-42.067353 42.067352s-42.067352-18.920377-42.067352-42.067352 18.920377-42.067352 42.067352-42.067353 42.067352 18.920377 42.067353 42.067353z m-59.98125 0c0 9.863087 8.05081 17.913898 17.913897 17.913897s17.913898-8.05081 17.913898-17.913897-8.05081-17.913898-17.913898-17.913898c-9.862063 0-17.913898 8.051834-17.913897 17.913898zM516.133425 36.858848m-29.990625 0a29.990625 29.990625 0 1 1 59.98125 0 29.990625 29.990625 0 1 1-59.98125 0ZM623.415106 769.510231h-214.360632c-6.641944 0-12.076727-5.434783-12.076728-12.076728V-48.281312c0-6.641944 5.434783-12.076727 12.076728-12.076728h214.360632c6.641944 0 12.076727 5.434783 12.076727 12.076728V757.433503c0 6.641944-5.434783 12.076727-12.076727 12.076728z m-12.076728-805.714816h-190.207177V298.117523h190.207177v-334.322108z m0 358.475563h-190.207177V495.570736h190.207177v-173.299758z m0 197.453213h-190.207177V745.356776h190.207177v-225.632585zM454.341946 433.979938h123.785688c6.641944 0 12.076727 5.434783 12.076727 12.076728s-5.434783 12.076727-12.076727 12.076727H454.341946c-6.641944 0-12.076727-5.434783-12.076728-12.076727s5.433759-12.076727 12.076728-12.076728zM454.341946 389.698946h123.785688c6.641944 0 12.076727 5.434783 12.076727 12.076727s-5.434783 12.076727-12.076727 12.076728H454.341946c-6.641944 0-12.076727-5.434783-12.076728-12.076728s5.433759-12.076727 12.076728-12.076727zM516.133425-5.207481c23.146976 0 42.067352 18.920377 42.067353 42.067353s-18.920377 42.067352-42.067353 42.067352-42.067352-18.920377-42.067352-42.067352c0.001024-23.147999 18.920377-42.067352 42.067352-42.067353z m0 59.980226c9.863087 0 17.913898-8.05081 17.913898-17.913897s-8.05081-17.913898-17.913898-17.913898-17.913898 8.05081-17.913898 17.913898 8.051834 17.913898 17.913898 17.913897z"  horiz-adv-x="1024" />

    
    <glyph glyph-name="16" unicode="&#58918;" d="M739.39674 285.26469c34.237701 0 65.755963-14.183883 88.667445-36.885468 22.754827-22.754827 36.934615-54.047835 36.934615-89.174269 0-68.870622-56.674101-125.584655-125.60206-125.584654-69.5341 0-126.055642 56.714032-126.055642 125.584654 0 14.41221 2.316029 27.932616 6.776073 40.98101l-133.980514 80.581823c-1.55221-2.476779-4.235814-4.756971-6.048091-7.004399l-2.020126-1.569617c-30.82202-30.158542-72.917017-48.60998-119.486393-48.609979-94.329531 0-171.550962 77.203001-171.550962 171.496696 0 94.119635 77.220407 171.565297 171.550962 171.565297 47.215448 0 90.005663-18.922425 121.034508-50.440687h0.470987c1.812277-2.230022 4.49588-4.043323 6.048091-6.28768l133.980514 79.675685c-4.460044 12.806758-6.776073 26.986546-6.776073 40.977938 0 69.327275 56.781608 126.265538 126.055642 126.265538 68.92796 0 125.602061-56.938263 125.60206-126.265538 0-69.345705-56.674101-125.620491-125.60206-125.62049-35.108004 0-66.380533 14.183883-89.102597 36.467723l-0.888732 1.35972-133.320108-79.678756c9.024525-21.184187 14.008799-44.132529 14.008799-68.017726 0-24.060281-4.985298-46.990193-14.008799-67.95015l133.320108-79.69309 0.888732 0.941974 0.264163 0.206825c22.929912 22.493737 53.959781 36.67762 88.839458 36.67762z m49.551954-76.089014c-12.649079 12.617339-30.405299 20.492041-49.551954 20.492041-19.582831 0-37.127106-7.874702-49.705537-20.492041v-0.206825c-13.07092-12.614267-20.492041-30.386869-20.492041-49.762874 0-38.71208 31.222359-70.230342 70.198601-70.230342 38.733582 0 70.040923 31.518262 70.040924 70.230342 0 19.376006-7.910538 37.148607-20.488969 49.762874v0.206825h-0.001024z m-49.551954 491.819221c-38.976243 0-70.198602-31.743517-70.198602-70.422833 0-13.520406 3.642984-26.133649 10.105748-37.162942l0.488393-0.21092c2.230022-4.039228 5.192122-7.439551 8.781865-10.819396l1.117059-1.323884c12.578431-12.855904 30.122706-20.506375 49.705537-20.506375 38.733582 0 70.040923 31.275601 70.040923 70.023517 0 39.150303-31.308365 70.422833-70.040923 70.422833z"  horiz-adv-x="1024" />

    
    <glyph glyph-name="diannao" unicode="&#58910;" d="M952.43 109.844H72.292c-37.805 0-68.561 30.756-68.561 68.562V756.028c0 37.805 30.756 68.562 68.561 68.562H952.43c37.805 0 68.561-30.757 68.561-68.562v-577.622c0-37.807-30.755-68.562-68.561-68.562zM72.292 783.657c-15.234 0-27.629-12.394-27.629-27.629v-577.622c0-15.235 12.395-27.63 27.63-27.63H952.43c15.235 0 27.63 12.395 27.63 27.63V756.028c0 15.235-12.395 27.63-27.63 27.63H72.292zM461.268 127.24h102.33v-202.092h-102.33V127.24zM696.107-93.673H329.27v21.972c0 33.642 27.272 60.916 60.916 60.916h245.007c33.642 0 60.915-27.273 60.915-60.916v-21.972zM26.898 279.195h968.51v-40.932H26.899v40.932zM484.804 192.473a27.749 27.749 0 1 1 56.791 0 27.749 27.749 0 1 1-56.791 0z"  horiz-adv-x="1024" />

    
    <glyph glyph-name="QQ" unicode="&#59022;" d="M271.920086 716.839551C336.423169 796.429237 426.173263 844.921671 525.621229 844.921671S714.665793 796.429237 779.322371 716.839551c62.193481-75.894528 103.143125-180.269713 106.99178-297.267381 3.695159-6.158257 7.389294-12.470009 11.237949-18.627243 3.695159-7.389294 8.774851-16.164145 12.470009-24.938995 0 0 0-1.232061 1.231037-1.232061 19.859303-41.10314 32.328289-83.283822 36.023448-119.307269 4.926196-41.10314-1.232061-74.66349-19.859303-92.058673-1.232061-1.232061-3.695159-2.463098-4.926196-3.695158-14.933107-11.237949-32.328289-11.237949-49.724495-4.926196-11.237949 4.926196-22.322401 12.470009-32.328289 22.322401-2.463098-4.926196-4.926196-10.006911-7.389294-13.701047-3.695159-7.389294-8.774851-16.164145-12.468986-23.553438 12.468986-6.158257 22.322401-13.701047 31.097252-22.322402 16.164145-16.164145 26.171056-34.791387 26.171056-54.650691 0-33.56035-26.171056-62.193481-67.119677-82.052784-36.023448-16.164145-84.515882-26.171056-138.089032-26.171056-31.097252 0-60.962443 3.695159-85.746919 10.006911-22.322401 4.926196-41.10314 11.237949-58.499346 19.859304-16.164145-8.774851-36.023448-14.933107-58.499345-19.859304-26.171056-6.158257-55.881728-10.006911-86.97898-10.006911-53.41863 0-101.912088 10.006911-138.089032 26.171056-42.335201 18.627243-67.119677 47.261397-67.119677 82.052784 0 19.859303 10.006911 38.486546 26.171056 54.650691 8.774851 7.389294 18.627243 14.933107 31.097252 22.322402-4.926196 7.389294-8.774851 14.933107-12.470009 23.553438-2.463098 4.926196-4.926196 10.006911-7.389294 14.933108-11.237949-10.006911-22.322401-17.396205-32.32829-22.322402-18.627243-7.389294-34.791387-6.158257-49.724494 4.926196-1.232061 1.232061-3.695159 2.463098-4.926196 3.695159-18.627243 17.396205-24.938995 50.955532-19.859304 92.058672 3.695159 36.023448 16.164145 78.357626 36.023448 119.30727 4.926196 10.006911 8.774851 18.627243 13.701047 26.171056 3.695159 6.158257 7.389294 12.470009 11.237949 17.396205 3.231601 115.611088 51.570539 234.148831 102.68059 297.266358z m253.18335 88.060615c-85.461417 0-163.339112-42.177612-220.682122-112.316042-58.764382-70.13843-95.729272-169.658028-98.256838-279.446503 0-5.055133-1.263783-10.267854-3.791349-14.059204-3.791349-6.318916-9.004071-14.059204-12.795421-21.641903s-9.004071-15.322987-12.79542-24.169469c-17.850553-36.96489-28.118408-75.351152-31.909758-107.260909-3.791349-25.590841-1.263783-44.705178 5.055133-51.024094 0 0 0 1.263783 1.263783 1.263783 6.318916 2.527566 15.322987 9.004071 24.169469 17.850554 5.055133 5.055133 11.531638 12.795421 16.58677 20.378119 7.582699 11.531638 24.169469 14.059204 35.701107 6.318916 3.791349-3.791349 7.582699-7.582699 9.004071-11.531637 6.318916-16.58677 14.059204-33.17354 21.641903-48.496528s16.58677-30.645974 26.854625-44.705178c7.582699-11.531638 5.055133-28.118408-6.318916-35.701106l-7.582699-3.79135c-17.850553-6.318916-31.909757-14.059204-42.177612-24.169469-6.318916-6.318916-10.267854-12.795421-10.267854-17.850553 0-12.795421 15.322987-25.590841 39.492456-36.96489 30.645974-14.059204 72.665996-22.905686 121.161501-22.905686 28.118408 0 53.55166 2.527566 77.878718 7.582699 22.905686 5.055133 43.441395 12.795421 57.343009 21.641903 9.004071 5.055133 19.114336 5.055133 26.854625 0 15.322987-9.004071 34.437323-16.58677 57.343009-21.641903s48.496527-7.582699 77.878719-7.582699c47.232744 0 90.674139 9.004071 121.1615 22.905686 24.169469 11.531638 39.492456 24.169469 39.492456 36.96489 0 5.055133-3.791349 11.531638-10.267854 17.850553-10.267854 9.004071-25.590841 17.850553-43.441395 24.169469-14.059204 5.055133-20.37812 19.114336-15.322987 33.17354 1.263783 2.527566 1.263783 3.791349 2.527566 5.055133 10.267854 14.059204 17.850553 29.382191 26.854625 44.705178s15.322987 31.909757 21.641903 48.496527c5.055133 14.059204 20.37812 20.37812 33.17354 15.322987 5.055133-2.527566 10.267854-5.055133 12.795421-10.267854 5.055133-6.318916 10.267854-12.795421 15.322987-17.850553 9.004071-10.267854 16.58677-16.58677 24.169469-19.114337l1.263783-1.263783c6.318916 6.318916 7.582699 25.590841 5.055133 51.024094-3.791349 31.909757-14.059204 68.874647-31.909758 105.838513 0 0 0 1.263783-1.263783 1.263783-3.791349 7.582699-7.582699 15.322987-11.531637 22.905686-5.055133 7.582699-9.004071 15.322987-12.795421 21.641903-2.527566 5.055133-3.791349 10.267854-3.791349 14.059204-2.527566 109.788475-39.492456 208.04429-98.256838 279.446503-63.189158 70.454632-141.066853 113.896026-226.52827 113.896027zM158.544923 200.507896zM892.24728 200.507896z"  horiz-adv-x="1024" />

    
    <glyph glyph-name="zhiding" unicode="&#58913;" d="M119.278 10.914h785.443l-394.28 623.298-391.164-623.299zM119.278 757.087v-117.821h785.443v117.821h-785.443z"  horiz-adv-x="1024" />

    
    <glyph glyph-name="zixun1" unicode="&#58904;" d="M276.51584 573.24544A177.73056 177.73056 0 0 1 245.76 576C136.89344 576 48.64 487.74656 48.64 378.88s88.25344-197.11488 197.11488-197.11488c10.52672 0 20.77184 0.9984 30.75584 2.74944C345.96864 54.90176 482.66752-33.28 640-33.28c5.5552 0 10.97216 0.52736 16.4608 0.8192l1.4592-0.8192V790.13376c-5.9904 0.256-11.86816 0.90624-17.92 0.90624-157.33248 0-294.03136-88.18176-363.48416-217.79456z m-23.9872-335.1296c-68.67456 0.79872-152.69376 25.79456-152.69376 140.76416 0 113.49504 81.7664 145.92512 151.04 145.92512 1.2032 0 2.3808-0.1024 3.57888-0.13824A411.10528 411.10528 0 0 1 227.84 378.88a411.38176 411.38176 0 0 1 24.68864-140.76416z m354.19136-215.54688c-162.432 25.8304-327.68 140.99968-327.68 356.30592 0 213.82144 165.248 330.48064 327.68 356.31104v-712.61696z m102.39488 684.47744v-54.51264C813.44512 615.59808 913.92 531.62496 913.92 378.88c0-154.44992-100.47488-236.71808-204.80512-273.65888v-54.50752C853.61664 90.09152 960 221.9008 960 378.88c0 156.9792-106.38336 288.78848-250.88512 328.1664z m107.52-328.1664c0 76.42112-43.93984 141.93152-107.52 174.6432v-66.56C750.08 470.18496 765.44 413.00992 765.44 378.88c0-34.12992-15.36-81.06496-56.32512-108.08832v-66.55488c63.58016 32.71168 107.52 98.22208 107.52 174.6432z"  horiz-adv-x="1024" />

    
    <glyph glyph-name="yingguo" unicode="&#58940;" d="M67.8 640.7h890v-595h-890zM957.8 432.5h-356V640.7h-178v-208.2h-356V254h356v-208.3h178V254h356zM957.8 114.1L170 640.7H67.8v-68.9l787.1-526.1h102.9zM67.8 114.1l787.9 526.6h102.1v-68.9L170.7 45.7H67.8zM957.8 395.3H564.7V640.7H460.9v-245.4H67.8v-104.1h393.1v-245.5h103.8V291.2h393.1zM957.8 47.4v47.1L718.6 254h-70.4zM957.8 640.7h-70.3L601.8 450.3v-17.8h43.9l312.1 208.2zM377.6 254L67.8 47.4v-1.7h68l288 192.1V254zM67.8 640.4v-47L309 432.5h70.5z"  horiz-adv-x="1024" />

    
    <glyph glyph-name="bofang1" unicode="&#58941;" d="M512 893.963135C230.336857 893.963135 2.077602 665.752765 2.077602 384.067896c0-78.954324 17.929845-153.748012 50.036271-220.530031v-0.124928h0.043454c0.108633-0.336762 0.217266-0.608344 0.353056-0.760429h0.135791c3.487113-4.921066 13.465036-4.100888 22.861775 0.760429 9.652025 4.76898 14.057085 13.845251 11.25979 19.836351A469.364339 469.364339 0 0 0 41.83721 384.067896c0 259.643273 210.470633 470.189948 470.16279 470.189948 259.59982 0 470.113905-210.481496 470.113905-470.189948 0-259.773632-210.470633-470.298581-470.113905-470.298582a468.136788 468.136788 0 0 0-228.297276 59.199449c-0.124928 0.217266-0.293309 0.342193-0.418237 0.488847-5.268691 4.003119-14.909853 0.277014-21.607065-8.467927-6.447357-8.435337-6.186638-19.776603-1.374205-24.116483-0.06518 0-0.06518-0.211834-0.200971-0.211834 74.33743-42.241867 160.173643-66.629932 251.897754-66.629933 281.543647 0 509.922398 228.373319 509.922398 510.036463 0 281.592531-228.297276 509.895239-509.922398 509.895239zM120.259234 55.649192a26.951799 26.951799 0 0 1 26.984389-26.930073 26.940936 26.940936 0 0 1 26.940936 26.930073 26.968094 26.968094 0 1 1-53.925325 0M368.620989 169.404037c0-8.190914 6.968795-14.670861 15.539923-14.670861 3.318732 0 6.403904 1.010285 8.967639 2.753842l364.941053 210.584697c6.436494 2.167225 11.140294 8.370158 11.140294 15.811505 0 7.506527-4.796138 13.736618-11.45533 15.768052L394.475597 609.513561a16.137404 16.137404 0 0 1-10.309253 3.726105c-8.571128 0-15.539923-6.583148-15.539923-14.687156 0-1.146076 0.195539-2.259562 0.374783-3.3133v-422.467556c-0.179244-1.102623-0.380215-2.167225-0.380215-3.367617zM408.472935 528.71791c0 5.485957 4.660347 9.93447 10.504792 9.93447 2.672367 0 5.149195-0.977695 6.909047-2.536576l245.119066-141.515958a11.210906 11.210906 0 0 0 7.674908-10.651447c0-5.10031-3.269848-9.179472-7.604297-10.635151l-246.113056-142.346999c-1.667514-1.070033-3.77499-1.586039-5.9911-1.586039-5.790129 0-10.504792 4.37247-10.504792 9.90188 0 0.733271 0.048885 1.374205 0.260719 2.199814V526.561549a7.387031 7.387031 0 0 0-0.255287 2.156361z"  horiz-adv-x="1024" />

    
    <glyph glyph-name="PAD" unicode="&#58919;" d="M191.919497 117.373585V615.849057c0 24.472956 19.96478 43.793711 43.793711 43.79371h776.694339c24.472956 0 43.793711-19.96478 43.793711-43.79371v-498.475472c0-24.472956-19.96478-43.793711-43.793711-43.793711H235.713208c-24.472956 0-43.793711 19.320755-43.793711 43.793711z m789.574843 249.237736c0-7.728302 3.220126-14.812579 8.372327-19.96478 5.152201-5.152201 12.236478-8.372327 19.96478-8.372327 7.728302 0 14.812579 3.220126 19.964779 8.372327 5.152201 5.152201 8.372327 12.236478 8.372327 19.96478 0 7.728302-3.220126 14.812579-8.372327 19.96478-5.152201 5.152201-12.236478 8.372327-19.964779 8.372327-7.728302 0-14.812579-3.220126-19.96478-8.372327-5.152201-5.152201-8.372327-12.236478-8.372327-19.96478z m-752.221384 0c0-3.220126 2.576101-6.440252 6.440252-6.440252 3.220126 0 6.440252 2.576101 6.440251 6.440252 0 3.220126-2.576101 6.440252-6.440251 6.440251-3.220126-0.644025-6.440252-3.220126-6.440252-6.440251z m45.725786-263.40629h696.191195V629.373585H274.998742v-526.168554z"  horiz-adv-x="1249" />

    
    <glyph glyph-name="gengduo" unicode="&#58920;" d="M224 288c-52.928 0-96 43.072-96 96s43.072 96 96 96 96-43.072 96-96-43.072-96-96-96z m288 0c-52.928 0-96 43.072-96 96s43.072 96 96 96 96-43.072 96-96-43.072-96-96-96z m288 0c-52.928 0-96 43.072-96 96s43.072 96 96 96 96-43.072 96-96-43.072-96-96-96z"  horiz-adv-x="1024" />

    
    <glyph glyph-name="personal-1" unicode="&#58948;" d="M842.035 249.73199999999997c-43.268 42.132-93.934 74.14-150.666 95.116l-19.067 7.035 16.91 11.128c14.18 9.32 27.438 20.049 39.464 31.805 50.255 49.166 77.902 114.51 77.902 184.025 0 69.489-27.647 134.859-77.902 184.023C678.317 812.054 611.51 839.11 540.444 839.11c-71.119 0-137.974-27.058-188.23-76.247C301.957 713.7 274.31 648.33 274.31 578.8399999999999c0-69.516 27.647-134.86 77.904-184a262.897 262.897 0 0 1 39.465-31.831l16.855-11.128-19.015-7.035c-56.783-20.977-107.45-52.984-150.614-95.116-80.729-78.683-125.127-183.193-125.127-294.313 0-14.62 12.179-26.53 27.132-26.53 14.954 0 27.132 11.91 27.132 26.53 0 97.051 38.695 188.245 108.942 256.805 70.193 68.46 163.616 106.246 262.998 106.372 100.256-0.126 193.627-37.911 263.87-106.372 70.246-68.56 108.994-159.754 108.994-256.805 0-14.62 12.126-26.53 27.132-26.53 14.953 0 27.133 11.91 27.133 26.53 0.002 111.095-44.395 215.631-125.076 294.314zM390.6 432.325c-40.03 39.166-62.075 91.196-62.075 146.517 0 55.32 22.045 107.349 62.075 146.515 40.03 39.141 93.267 60.697 149.846 60.697 56.576 0 109.762-21.556 149.792-60.697 40.083-39.166 62.075-91.196 62.075-146.515 0-55.32-21.992-107.35-62.075-146.517-39.877-38.965-92.907-60.495-149.332-60.67-57.348 0.176-110.379 21.706-150.306 60.67z"  horiz-adv-x="1024" />

    
    <glyph glyph-name="fabu" unicode="&#58902;" d="M866.303 158.777c-4.171-87.443-76.441-157.304-164.639-157.304h-389.396c-88.198 0-160.504 69.862-164.675 157.304h-0.179v440.417h0.179c4.171 87.479 76.477 157.34 164.675 157.34l327.84-0.036-71.083-60.082h-256.757c-57.817 0-104.918-47.209-104.918-105.205v-424.416c0-57.997 47.102-105.205 104.918-105.205h389.396c57.817 0 104.917 47.209 104.917 105.205v297.026l59.938 59.074v-364.119h-0.217zM659.308 422.651l-43.47-45.879c-14.418-14.742-50.913-51.74-62.454-63.964-11.578-12.297-21.178-22.401-28.764-30.346s-12.153-12.513-13.555-13.627c-3.667-3.381-7.802-6.939-12.513-10.751-4.674-3.775-9.564-6.796-14.633-9.061-5.069-2.661-12.477-5.825-22.256-9.709-9.78-3.776-19.991-7.443-30.706-11.038-10.679-3.595-20.819-6.687-30.382-9.349-9.6-2.589-16.755-4.351-21.466-5.141-9.744-1.115-16.252 0.431-19.523 4.567-3.272 4.134-4.171 11.183-2.733 20.926 0.755 5.321 2.445 12.98 5.178 22.975 2.696 10.031 5.609 20.423 8.665 31.173 3.092 10.751 6.076 20.709 8.953 29.771 2.912 9.061 5.25 15.317 7.083 18.697 2.157 5.25 4.603 10.104 7.335 14.454 2.696 4.351 6.58 9.169 11.649 14.454 2.157 2.265 7.227 7.657 15.209 16.144 7.946 8.522 41.312 42.462 53.25 54.939l39.623 41.385 44.009 45.879 112.467 117.502 102.4-103.875-113.367-120.127zM842.932 616.199c-5.393-5.646-10.247-10.57-14.526-14.813s-8.018-8.018-11.183-11.29c-3.595-3.776-6.94-7.083-10.103-9.888l-101.898 103.839c5.429 5.178 11.829 11.398 19.272 18.697s13.663 13.052 18.589 17.294c6.364 5.178 12.873 8.81 19.667 10.931 6.185 1.942 12.261 2.876 18.265 2.841 0.539 0 1.115 0 1.654 0 3.308-0.143 6.58-0.468 9.744-1.007-0.072 0.036-0.217 0-0.288 0.036 0.072 0 0.217 0 0.288-0.036 13.7-2.553 28.045-9.923 40.234-21.717 6.759-6.58 12.261-13.915 16.252-21.466 5.897-11.146 8.701-22.796 8.163-33.439 0-1.295 0.108-2.625 0.108-3.955 0-6.149-1.15-12.261-3.416-18.373s-5.897-12.008-10.822-17.655z"  horiz-adv-x="1024" />

    
    <glyph glyph-name="dianhua" unicode="&#59031;" d="M690.113018-2.656318c-49.882617 0-114.293165 33.235727-159.546003 61.130516-60.593519 37.343024-125.874873 88.996278-183.82695 145.453473l-18.606201 18.606202c-56.457195 57.937564-108.124963 123.218917-145.453474 183.82695-27.894789 45.252837-61.130516 109.663385-61.130516 159.546002 0 53.394864 38.170289 110.055247 54.599478 131.941481 12.800835 17.082293 57.545702 72.813817 95.570857 72.813818 15.616438 0 32.422975-10.217446 54.52691-33.134133 19.549574-20.275245 38.30091-45.456025 50.579261-63.01726 16.516269-23.584304 31.784385-48.271628 42.988744-69.519272 18.170799-34.3968 20.275245-49.156946 20.275245-57.269947 0-16.356622-8.562917-30.550745-25.398481-42.175992-11.088251-7.648571-24.411569-13.410398-37.299484-18.98355-8.679024-3.744462-22.539338-9.753017-27.836736-13.961908 1.843204-7.822732 9.912664-26.704689 31.711818-58.706775 20.318785-29.825074 46.588071-62.146455 70.31751-86.514484 24.382542-23.729438 56.68941-49.998724 86.528997-70.317509 31.987573-21.799154 50.869529-29.868614 58.692261-31.711818 4.208891 5.282884 10.217446 19.157712 13.961908 27.836735 5.573152 12.887915 11.334979 26.196719 18.998064 37.299484 11.610734 16.835565 25.804857 25.398481 42.161479 25.398481 8.113001 0 22.858633-2.118959 57.269947-20.275245 21.247644-11.218872 45.949481-26.472474 69.519271-42.988743 17.561236-12.292865 42.756529-31.044201 63.01726-50.579261 22.916687-22.103935 33.134133-38.910473 33.134133-54.526911 0-38.025155-55.731524-82.770022-72.799304-95.58537-21.886234-16.400162-78.561131-54.584964-131.941481-54.584964z m-311.399893 239.181125c55.58639-54.135048 118.023114-103.56775 175.815543-139.183676 56.021793-34.541934 105.454494-54.338236 135.598863-54.338237 26.849823 0 65.107192 16.400162 102.377649 43.859549 16.342108 12.046137 31.203848 25.442021 41.871211 37.7494 10.014258 11.552681 13.657126 19.085144 14.585985 22.132962-3.860569 8.301675-26.820796 34.280693-80.433362 71.260881-21.015429 14.498904-42.756529 27.822222-61.203083 37.517185-23.163415 12.176758-32.800324 14.281203-35.020877 14.629526-0.870805-0.580537-3.381626-2.699496-7.213169-9.12894-4.295972-7.198655-8.417782-16.733971-12.408972-25.964505-4.905535-11.349493-9.999745-23.090848-16.226001-32.568109-10.130366-15.41325-22.568365-23.221469-36.980189-23.235982h-0.798238c-7.009981 0.145134-28.359218 0.609564-86.282269 40.057033-31.987573 21.799154-66.718182 50.042265-92.885874 75.58588l-0.420889 0.391862c-25.543615 26.196719-53.772213 60.927328-75.556853 92.900388-39.476496 57.937564-39.911899 79.272288-40.071547 86.282269-0.319295 14.658552 7.43087 27.328766 23.003768 37.633292 9.520802 6.298823 21.349238 11.42206 32.800324 16.371135 9.230534 3.99119 18.765849 8.127514 25.964504 12.408973 6.429444 3.831542 8.53389 6.356877 9.114427 7.213168-0.333809 2.20604-2.438254 11.857462-14.615012 35.020878-9.694963 18.432041-23.032794 40.187654-37.531699 61.203082-36.980189 53.612565-62.944693 76.572792-71.260881 80.433362-3.047818-0.928859-10.565768-4.58624-22.118449-14.585985-12.307378-10.652849-25.717776-25.543615-37.7494-41.87121-27.459387-37.255944-43.859549-75.527826-43.859548-102.37765 0-30.144369 19.796302-79.562557 54.323723-135.598862 35.630441-57.79243 85.048628-120.229153 139.183677-175.815544l17.996638-17.982125zM650.46236 400.366781a16.733971 16.733971 0 0 0-16.458216 13.831287c-4.092784 23.221469-17.561236 43.395119-37.88002 56.820031-20.609053 13.599073-45.804347 18.649742-70.941587 14.22315a16.733971 16.733971 0 1 0-5.805367 32.945458c33.598562 5.950501 67.400312-0.899832 95.193508-19.244792 28.06895-18.519121 46.675152-46.559044 52.393438-78.923966a16.733971 16.733971 0 0 0-16.501756-19.651168zM751.199993 443.58774a16.733971 16.733971 0 0 0-16.458216 13.831287c-7.953353 45.064162-33.990425 84.177823-73.3363 110.156841-39.621631 26.153179-88.009366 35.877169-136.22294 27.372306a16.733971 16.733971 0 1 0-5.805367 32.945459c56.674897 10.014258 113.669088-1.509395 160.474861-32.393949 47.081527-31.087741 78.285376-78.053161 87.849718-132.27529a16.733971 16.733971 0 0 0-16.501756-19.636654zM885.695836 456.054765a16.733971 16.733971 0 0 0-16.458216 13.831288c-13.555532 76.921114-57.966591 143.65381-125.018581 187.90522-67.342259 44.454599-149.531744 60.985382-231.38742 46.559045a16.733971 16.733971 0 1 0-5.805367 32.945458c90.316999 15.935733 181.098428-2.380201 255.624828-51.566173 74.816669-49.374647 124.379991-123.973615 139.546512-210.02367a16.733971 16.733971 0 0 0-16.501756-19.651168z"  horiz-adv-x="1024" />

    
    <glyph glyph-name="gengduo1" unicode="&#58894;" d="M863.308449 333.318707H592.744367c-24.904679 0-45.092819-20.18814-45.092819-45.094867v-270.562034c0-24.905703 20.18814-45.094867 45.092819-45.094867h270.565106c24.904679 0 45.093843 20.189164 45.093843 45.094867V288.22384c-0.001024 24.906727-20.190188 45.094867-45.094867 45.094867M848.277168 273.193583v-240.50152H607.775648V273.193583h240.50152zM933.795418 603.216165l-176.373583 176.373583c-16.23448 16.23448-42.556373 16.23448-58.78983 0l-176.373583-176.373583c-16.23448-16.23448-16.23448-42.556373 0-58.791877l176.373583-176.373584c16.23448-16.23448 42.556373-16.23448 58.78983 0l176.373583 176.373584c16.235504 16.235504 16.235504 42.557397 0 58.791877M884.802187 573.82125L728.025896 417.044959 571.250629 573.820226l156.777315 156.777315 156.774243-156.776291zM442.431558 754.196622H171.8685c-24.904679 0-45.094867-20.189164-45.094867-45.093843V438.538697c0-24.904679 20.189164-45.093843 45.094867-45.093842h270.563058c24.906727 0 45.094867 20.189164 45.094866 45.093842V709.102779c0 24.904679-20.18814 45.093843-45.094866 45.093843M427.400277 694.071498v-240.502544H186.899781V694.071498h240.500496zM442.431558 333.318707H171.8685c-24.904679 0-45.094867-20.18814-45.094867-45.094867v-270.562034c0-24.905703 20.189164-45.094867 45.094867-45.094867h270.563058c24.906727 0 45.094867 20.189164 45.094866 45.094867V288.22384c0 24.906727-20.18814 45.094867-45.094866 45.094867M427.400277 273.193583v-240.50152H186.899781V273.193583h240.500496z"  horiz-adv-x="1024" />

    
    </font>
</defs>
</svg>
